<?xml version="1.0" encoding="UTF-8"?><svg id="a" xmlns="http://www.w3.org/2000/svg" xmlns:xlink="http://www.w3.org/1999/xlink" viewBox="0 0 595.276 595.276"><defs><linearGradient id="b" x1="-245.084" y1="342.011" x2="417.916" y2="-349.989" gradientUnits="userSpaceOnUse"><stop offset="0" stop-color="#de8f73"/><stop offset=".052" stop-color="#e19a81"/><stop offset=".152" stop-color="#eabaa9"/><stop offset=".289" stop-color="#f9ece8"/><stop offset=".335" stop-color="#fff"/><stop offset=".469" stop-color="#f2d5cb"/><stop offset=".575" stop-color="#eabaaa"/><stop offset=".632" stop-color="#e7b09e"/><stop offset=".642" stop-color="#e6ae9b"/><stop offset=".881" stop-color="#d18f6d"/><stop offset="1" stop-color="#c9845c"/></linearGradient><linearGradient id="c" x1="-244.353" y1="342.712" x2="418.647" y2="-349.288" xlink:href="#b"/><linearGradient id="d" x1="-230.345" y1="356.133" x2="432.655" y2="-335.867" xlink:href="#b"/><linearGradient id="e" x1="-235.579" y1="351.118" x2="427.421" y2="-340.882" xlink:href="#b"/><linearGradient id="f" x1="-235.244" y1="351.439" x2="427.756" y2="-340.561" xlink:href="#b"/><linearGradient id="g" x1="-177.78" y1="406.495" x2="485.22" y2="-285.505" xlink:href="#b"/><linearGradient id="h" x1="-183.545" y1="400.971" x2="479.455" y2="-291.029" xlink:href="#b"/><linearGradient id="i" x1="-214.876" y1="370.954" x2="448.124" y2="-321.046" xlink:href="#b"/><linearGradient id="j" x1="-220.641" y1="365.43" x2="442.359" y2="-326.57" xlink:href="#b"/><linearGradient id="k" x1="-203.903" y1="381.467" x2="459.097" y2="-310.533" xlink:href="#b"/><linearGradient id="l" x1="-174.591" y1="409.55" x2="488.409" y2="-282.45" xlink:href="#b"/><linearGradient id="m" x1="-180.588" y1="403.805" x2="482.412" y2="-288.195" xlink:href="#b"/><linearGradient id="n" x1="-213.173" y1="372.585" x2="449.827" y2="-319.415" xlink:href="#b"/><linearGradient id="o" x1="-219.169" y1="366.84" x2="443.831" y2="-325.16" xlink:href="#b"/><linearGradient id="p" x1="-201.761" y1="383.519" x2="461.239" y2="-308.481" xlink:href="#b"/><linearGradient id="q" x1="-269.901" y1="318.235" x2="393.099" y2="-373.765" xlink:href="#b"/><linearGradient id="r" x1="-269.724" y1="318.404" x2="393.276" y2="-373.596" xlink:href="#b"/><linearGradient id="s" x1="29.353" y1="604.947" x2="692.353" y2="-87.053" xlink:href="#b"/><linearGradient id="t" x1="11.389" y1="587.737" x2="674.389" y2="-104.263" xlink:href="#b"/><linearGradient id="u" x1="19.929" y1="595.918" x2="682.929" y2="-96.082" xlink:href="#b"/><linearGradient id="v" x1="29.523" y1="605.111" x2="692.523" y2="-86.889" xlink:href="#b"/><linearGradient id="w" x1="10.738" y1="587.113" x2="673.738" y2="-104.887" xlink:href="#b"/><linearGradient id="x" x1="104.193" y1="676.651" x2="767.193" y2="-15.349" xlink:href="#b"/><linearGradient id="y" x1="98.418" y1="671.118" x2="761.418" y2="-20.882" xlink:href="#b"/><linearGradient id="z" x1="67.035" y1="641.05" x2="730.035" y2="-50.95" xlink:href="#b"/><linearGradient id="aa" x1="61.259" y1="635.516" x2="724.259" y2="-56.484" xlink:href="#b"/><linearGradient id="ab" x1="78.026" y1="651.581" x2="741.026" y2="-40.419" xlink:href="#b"/><linearGradient id="ac" x1="-66.313" y1="513.291" x2="596.687" y2="-178.709" xlink:href="#b"/><linearGradient id="ad" x1="-60.284" y1="519.066" x2="602.716" y2="-172.934" xlink:href="#b"/><linearGradient id="ae" x1="-27.529" y1="550.45" x2="635.471" y2="-141.55" xlink:href="#b"/><linearGradient id="af" x1="-21.5" y1="556.225" x2="641.5" y2="-135.775" xlink:href="#b"/><linearGradient id="ag" x1="-39.001" y1="539.458" x2="623.999" y2="-152.542" xlink:href="#b"/><linearGradient id="ah" x1="26.755" y1="602.458" x2="689.755" y2="-89.542" xlink:href="#b"/><linearGradient id="ai" x1="15.237" y1="591.423" x2="678.237" y2="-100.577" xlink:href="#b"/><linearGradient id="aj" x1="275.505" y1="840.784" x2="938.505" y2="148.784" xlink:href="#b"/><linearGradient id="ak" x1="274.773" y1="840.083" x2="937.773" y2="148.083" xlink:href="#b"/><linearGradient id="al" x1="260.765" y1="826.662" x2="923.765" y2="134.662" xlink:href="#b"/><linearGradient id="am" x1="266" y1="831.677" x2="929" y2="139.677" xlink:href="#b"/><linearGradient id="an" x1="265.665" y1="831.356" x2="928.665" y2="139.356" xlink:href="#b"/><linearGradient id="ao" x1="208.2" y1="776.3" x2="871.2" y2="84.3" xlink:href="#b"/><linearGradient id="ap" x1="213.966" y1="781.824" x2="876.966" y2="89.824" xlink:href="#b"/><linearGradient id="aq" x1="245.296" y1="811.841" x2="908.296" y2="119.841" xlink:href="#b"/><linearGradient id="ar" x1="251.062" y1="817.365" x2="914.062" y2="125.365" xlink:href="#b"/><linearGradient id="as" x1="234.323" y1="801.328" x2="897.323" y2="109.328" xlink:href="#b"/><linearGradient id="at" x1="205.011" y1="773.244" x2="868.011" y2="81.244" xlink:href="#b"/><linearGradient id="au" x1="211.008" y1="778.99" x2="874.008" y2="86.99" xlink:href="#b"/><linearGradient id="av" x1="243.593" y1="810.209" x2="906.593" y2="118.209" xlink:href="#b"/><linearGradient id="aw" x1="249.59" y1="815.955" x2="912.59" y2="123.955" xlink:href="#b"/><linearGradient id="ax" x1="232.181" y1="799.275" x2="895.181" y2="107.275" xlink:href="#b"/><linearGradient id="ay" x1="300.321" y1="864.56" x2="963.321" y2="172.56" xlink:href="#b"/><linearGradient id="az" x1="300.145" y1="864.391" x2="963.145" y2="172.391" xlink:href="#b"/><linearGradient id="ba" x1="1.068" y1="577.848" x2="664.068" y2="-114.152" xlink:href="#b"/><linearGradient id="bb" x1="19.031" y1="595.058" x2="682.031" y2="-96.942" xlink:href="#b"/><linearGradient id="bc" x1="10.492" y1="586.877" x2="673.492" y2="-105.123" xlink:href="#b"/><linearGradient id="bd" x1=".897" y1="577.684" x2="663.897" y2="-114.316" xlink:href="#b"/><linearGradient id="be" x1="19.683" y1="595.682" x2="682.683" y2="-96.318" xlink:href="#b"/><linearGradient id="bf" x1="-73.773" y1="506.144" x2="589.227" y2="-185.856" xlink:href="#b"/><linearGradient id="bg" x1="-67.997" y1="511.677" x2="595.003" y2="-180.323" xlink:href="#b"/><linearGradient id="bh" x1="-36.614" y1="541.745" x2="626.386" y2="-150.255" xlink:href="#b"/><linearGradient id="bi" x1="-30.838" y1="547.278" x2="632.162" y2="-144.722" xlink:href="#b"/><linearGradient id="bj" x1="-47.605" y1="531.214" x2="615.395" y2="-160.786" xlink:href="#b"/><linearGradient id="bk" x1="96.733" y1="669.504" x2="759.733" y2="-22.496" xlink:href="#b"/><linearGradient id="bl" x1="90.705" y1="663.728" x2="753.705" y2="-28.272" xlink:href="#b"/><linearGradient id="bm" x1="57.949" y1="632.345" x2="720.949" y2="-59.655" xlink:href="#b"/><linearGradient id="bn" x1="51.921" y1="626.57" x2="714.921" y2="-65.43" xlink:href="#b"/><linearGradient id="bo" x1="69.421" y1="643.337" x2="732.421" y2="-48.663" xlink:href="#b"/><linearGradient id="bp" x1="3.665" y1="580.336" x2="666.665" y2="-111.664" xlink:href="#b"/><linearGradient id="bq" x1="15.184" y1="591.372" x2="678.184" y2="-100.628" xlink:href="#b"/><linearGradient id="br" x1="229.846" y1="78.986" x2="346.846" y2="-30.014" xlink:href="#b"/><linearGradient id="bs" x1="264.853" y1="116.562" x2="381.853" y2="7.562" xlink:href="#b"/><linearGradient id="bt" x1="249.319" y1="99.889" x2="366.319" y2="-9.111" xlink:href="#b"/><linearGradient id="bu" x1="255.536" y1="106.561" x2="372.536" y2="-2.439" xlink:href="#b"/></defs><path d="M7.57,50.734c1.726-1.734,3.767-3.168,6.054-4.218l.583-.268c4.45-2.197,11.141-3.728,17.859-4.076,17.6-.789,22.877-12.257,22.929-12.372.025-.057.054-.112.085-.165,2.408-4.015,1.093-9.275-2.931-11.725-3.047-1.854-7.025-.906-8.879,2.118-.675,1.106-.83,2.564-.413,3.898.618,1.978,1.907,3.224,3.537,3.42,1.401.168,2.778-.506,3.5-1.71.429-.714,1.348-.941,2.057-.513.709.429.938,1.352.512,2.064-1.335,2.218-3.852,3.454-6.424,3.146-2.811-.337-5.069-2.396-6.041-5.506-.673-2.152-.404-4.533.719-6.37,2.712-4.427,8.535-5.828,12.987-3.116,5.407,3.292,7.185,10.351,3.988,15.773-.597,1.269-6.693,13.221-25.481,14.064-6.229.322-12.639,1.774-16.719,3.788l-.621.286c-5.495,2.525-9.324,7.651-10.24,13.716-.871,5.778,1.057,11.27,5.292,15.068.331.296.675.584,1.031.861,3.19,2.483,7.257,3.42,11.453,2.636,5.993-1.119,10.107-4.576,11.286-9.484,1.065-4.432-.584-9.106-4.2-11.909-1.858-1.439-4.32-2.017-6.752-1.586-3.674.65-6.195,2.713-6.914,5.658-.647,2.64.329,5.426,2.489,7.097,1.101.853,2.464,1.223,3.835,1.044,1.353-.176,2.56-.865,3.382-1.952.525-.667,1.446-.782,2.102-.277.656.507.779,1.45.276,2.109-1.316,1.721-3.224,2.822-5.374,3.103-2.166.283-4.315-.302-6.052-1.645-3.099-2.398-4.499-6.401-3.569-10.197,1.004-4.095,4.481-7.048,9.304-7.902,3.261-.578,6.58.212,9.104,2.167,4.552,3.526,6.625,9.412,5.283,14.995-1.445,6.022-6.549,10.41-13.651,11.736-5.048.943-9.963-.2-13.84-3.217-.411-.321-.808-.653-1.189-.995-5.002-4.487-7.283-10.96-6.257-17.76.686-4.552,2.783-8.652,5.902-11.782Z" fill="url(#b)"/><path d="M51.446,6.703c3.119-3.131,7.205-5.234,11.74-5.923,6.775-1.029,13.226,1.26,17.697,6.28.342.383.672.781.991,1.192,3.008,3.891,4.146,8.824,3.207,13.89-1.322,7.126-5.693,12.248-11.694,13.699-5.563,1.347-11.428-.734-14.941-5.301-1.949-2.534-2.736-5.864-2.16-9.137.851-4.839,3.795-8.33,7.874-9.337,3.783-.933,7.772.472,10.161,3.582,1.339,1.743,1.921,3.9,1.64,6.074-.28,2.156-1.376,4.069-3.092,5.393-.656.505-1.597.382-2.102-.277-.505-.659-.392-1.595.276-2.109,1.083-.825,1.769-2.036,1.945-3.395.178-1.376-.191-2.744-1.04-3.849-1.665-2.167-4.441-3.148-7.072-2.498-2.936.724-4.99,3.254-5.638,6.939-.429,2.441.147,4.912,1.581,6.777,2.792,3.629,7.45,5.284,11.866,4.215,4.893-1.183,8.336-5.314,9.451-11.327.781-4.211-.152-8.292-2.628-11.495-.275-.356-.562-.701-.857-1.033-3.785-4.25-9.257-6.184-15.015-5.31-6.043.918-11.149,4.76-13.667,10.276l-.267.585c-2.025,4.133-3.472,10.566-3.793,16.827-.84,18.844-12.748,24.965-14.015,25.562-5.402,3.208-12.437,1.424-15.717-4.003-2.701-4.469-1.302-10.32,3.105-13.033,1.83-1.127,4.203-1.397,6.348-.722,3.1.976,5.151,3.242,5.487,6.063.306,2.58-.924,5.111-3.135,6.447-.709.428-1.63.198-2.057-.513-.427-.711-.201-1.633.512-2.064,1.199-.723,1.871-2.105,1.704-3.512-.195-1.635-1.437-2.929-3.408-3.549-1.329-.419-2.782-.264-3.884.415-3.017,1.855-3.958,5.851-2.11,8.91,2.441,4.038,7.682,5.358,11.683,2.942.053-.031.107-.061.164-.085.466-.212,11.547-5.448,12.328-23,.347-6.753,1.872-13.467,4.08-17.972l.249-.546c1.046-2.296,2.477-4.344,4.203-6.076Z" fill="url(#c)"/><path d="M47.244,46.518c.433-.434,1.086-.561,1.649-.319.474.203,11.664,5.063,17.056,11.996,2.578,3.313,2.219,6.314.721,7.817-1.499,1.504-4.489,1.864-7.791-.722-6.908-5.412-11.751-16.641-11.954-17.116-.241-.565-.115-1.221.318-1.655ZM64.551,63.886c.565-.568.415-2.069-.963-3.841h0c-3.048-3.919-8.365-7.215-11.998-9.169,1.949,3.648,5.236,8.988,9.135,12.043,1.767,1.383,3.263,1.533,3.827.967ZM64.768,59.119l-.012.012.012-.012Z" fill="url(#d)"/><path d="M41.765,53.927c.277-.278.656-.44,1.057-.44.51-.001.987.259,1.263.691.338.527,3.28,5.268,2.526,9.18h0c-.358,1.866-1.856,3.123-3.726,3.13-1.858.007-3.414-1.284-3.785-3.137-.784-3.919,2.126-8.644,2.461-9.17.059-.093.128-.178.204-.254ZM45.141,63.072l-1.471-.286c.258-1.339-.232-3.064-.835-4.507-.589,1.438-1.062,3.15-.796,4.48.131.653.629.722.837.721.246,0,.677-.09.795-.693l1.471.286Z" fill="url(#e)"/><path d="M54.628,41.019c.076-.076.16-.145.253-.204.524-.336,5.232-3.257,9.137-2.47,1.847.372,3.133,1.934,3.126,3.798-.007,1.876-1.26,3.378-3.119,3.739h0c-3.898.756-8.622-2.196-9.148-2.535-.43-.277-.689-.755-.688-1.267,0-.403.162-.783.439-1.061ZM63.933,42.697c.178-.178.214-.408.214-.564.001-.209-.068-.708-.719-.84-1.33-.268-3.035.205-4.464.795,1.442.606,3.163,1.1,4.491.842.221-.043.374-.129.477-.233Z" fill="url(#f)"/><polygon points="21.103 192.947 26.82 187.175 32.537 192.947 26.82 198.718 21.103 192.947" fill="url(#g)"/><polygon points="21.103 181.404 26.82 175.633 32.537 181.404 26.82 187.176 21.103 181.404" fill="url(#h)"/><polygon points="21.103 118.687 26.82 112.915 32.537 118.687 26.82 124.458 21.103 118.687" fill="url(#i)"/><polygon points="21.103 107.144 26.82 101.373 32.537 107.144 26.82 112.916 21.103 107.144" fill="url(#j)"/><path d="M26.82,69.97c-.791,0-1.432.643-1.432,1.437v138.491c0,.793.641,1.437,1.432,1.437s1.432-.643,1.432-1.437V71.407c0-.794-.641-1.437-1.432-1.437Z" fill="url(#k)"/><polygon points="192.818 31.808 187.067 26.071 192.818 20.334 198.569 26.071 192.818 31.808" fill="url(#l)"/><polygon points="181.317 31.808 175.565 26.071 181.317 20.334 187.068 26.071 181.317 31.808" fill="url(#m)"/><polygon points="118.82 31.808 113.069 26.071 118.82 20.334 124.571 26.071 118.82 31.808" fill="url(#n)"/><polygon points="107.319 31.808 101.568 26.071 107.319 20.334 113.07 26.071 107.319 31.808" fill="url(#o)"/><path d="M209.709,24.634H71.707c-.791,0-1.432.643-1.432,1.437s.641,1.437,1.432,1.437h138.002c.791,0,1.432-.643,1.432-1.437s-.641-1.437-1.432-1.437Z" fill="url(#p)"/><path d="M12.097,36.799c-1.713-1.719-2.817-3.983-3.086-6.466l-.033-.3c-.331-2.42-.013-5.791.855-8.975,1.755-6.257-.663-9.871-1.558-10.939.538,1.088.566,2.387.033,3.516-.724,1.536-2.282,2.432-4.167,2.398-1.313-.022-2.6-.645-3.398-1.597-1.883-2.254-1.595-5.646.641-7.563,1.284-1.1,2.916-1.634,4.595-1.504,1.655.127,3.166.895,4.249,2.133.673.65,5.177,5.556,2.693,14.415-.746,2.734-1.04,5.695-.764,7.719l.038.344c.279,2.563,1.822,4.794,4.128,5.967,2.158,1.1,4.563,1.056,6.599-.12.171-.098.332-.199.491-.306,1.354-.912,2.233-2.379,2.471-4.126.339-2.508-.449-4.556-2.153-5.621-1.51-.941-3.44-.901-4.92.102-.706.479-1.186,1.275-1.319,2.185-.203,1.387.2,2.509,1.093,3.072.775.488,1.769.469,2.532-.048.702-.478.891-1.437.421-2.137-.495-.736-.3-1.735.434-2.232s1.73-.302,2.225.435c1.456,2.169.881,5.129-1.284,6.598-1.814,1.232-4.181,1.275-6.03.11-1.997-1.26-2.949-3.596-2.562-6.261.262-1.803,1.245-3.402,2.697-4.385,2.526-1.713,5.825-1.778,8.405-.169,2.793,1.744,4.149,5.026,3.637,8.788-.356,2.63-1.766,4.951-3.866,6.367-.23.153-.452.293-.678.423-2.987,1.724-6.503,1.797-9.644.196-1.043-.531-1.976-1.216-2.775-2.018ZM6.506,8.736c-.246-.084-.505-.138-.771-.159-.828-.064-1.634.2-2.268.744-.904.774-1.024,2.142-.266,3.05.216.26.605.439.998.446.607.011,1.038-.186,1.212-.556.136-.29.092-.632-.112-.872-.574-.676-.494-1.692.18-2.268.298-.255.664-.381,1.027-.384Z" fill="url(#q)"/><path d="M7.663,9.474c-1.059-1.063-1.698-2.454-1.815-3.972-.13-1.685.403-3.323,1.499-4.612,1.91-2.244,5.29-2.532,7.536-.643.976.813,1.568,2.094,1.59,3.411.034,1.892-.859,3.454-2.389,4.181-1.126.535-2.421.506-3.506-.034,1.049.886,4.651,3.33,10.891,1.567,3.183-.875,6.541-1.193,8.995-.856l.257.027c3.629.396,6.79,2.593,8.455,5.883,1.595,3.153,1.523,6.682-.199,9.685-.127.223-.266.445-.412.666-1.418,2.116-3.73,3.53-6.351,3.888-3.75.514-7.021-.846-8.757-3.65-1.603-2.589-1.537-5.901.169-8.436.98-1.457,2.573-2.442,4.369-2.706,2.656-.389,4.982.57,6.239,2.571,1.161,1.856,1.118,4.231-.109,6.051-1.464,2.173-4.414,2.751-6.575,1.29-.734-.496-.929-1.496-.434-2.233.495-.737,1.491-.932,2.224-.435.698.472,1.653.282,2.131-.423.515-.766.534-1.762.048-2.54-.563-.895-1.678-1.3-3.061-1.097-.907.133-1.7.615-2.177,1.323-.999,1.485-1.039,3.424-.102,4.938,1.065,1.712,3.103,2.502,5.601,2.16,1.74-.238,3.202-1.121,4.117-2.488.101-.152.203-.314.297-.48,1.175-2.048,1.219-4.462.123-6.627-1.173-2.317-3.394-3.864-5.944-4.142l-.3-.032c-2.061-.284-5.012.012-7.747.764-8.815,2.489-13.699-2.009-14.353-2.707-.107-.095-.21-.191-.311-.292ZM12.891,2.775c-.021-.021-.043-.041-.067-.062-.904-.761-2.268-.641-3.039.267-.541.636-.804,1.444-.74,2.276.02.266.074.526.159.774.003-.365.128-.73.382-1.03.574-.676,1.587-.757,2.26-.181.239.205.58.249.869.112.369-.174.565-.607.554-1.216-.006-.36-.148-.711-.377-.941Z" fill="url(#r)"/><path d="M586.664,50.822c-1.735-1.736-3.786-3.174-6.086-4.225l-.586-.268c-4.473-2.201-11.199-3.734-17.953-4.083-17.692-.79-22.996-12.278-23.049-12.393-.025-.057-.054-.112-.086-.165-2.42-4.022-1.099-9.29,2.946-11.745,3.063-1.857,7.062-.907,8.925,2.121.679,1.108.834,2.568.415,3.904-.621,1.981-1.917,3.23-3.555,3.426-1.409.169-2.793-.507-3.518-1.713-.432-.715-1.355-.942-2.068-.514-.712.429-.943,1.354-.514,2.068,1.342,2.222,3.872,3.46,6.458,3.151,2.825-.338,5.095-2.4,6.073-5.516.676-2.156.406-4.541-.723-6.38-2.726-4.434-8.58-5.838-13.055-3.122-5.435,3.297-7.223,10.369-4.009,15.8.6,1.271,6.728,13.243,25.615,14.087,6.261.323,12.705,1.777,16.806,3.795l.625.286c5.524,2.529,9.373,7.664,10.294,13.739.875,5.787-1.063,11.289-5.319,15.093-.333.297-.678.585-1.036.863-3.207,2.488-7.295,3.426-11.513,2.64-6.025-1.121-10.16-4.584-11.345-9.5-1.071-4.44.587-9.122,4.222-11.929,1.868-1.441,4.342-2.02,6.788-1.589,3.694.651,6.228,2.718,6.951,5.668.651,2.644-.331,5.435-2.502,7.109-1.107.854-2.477,1.225-3.856,1.046-1.36-.177-2.574-.867-3.4-1.955-.528-.668-1.454-.784-2.113-.277-.66.507-.784,1.453-.277,2.113,1.323,1.724,3.241,2.826,5.402,3.108,2.177.283,4.338-.302,6.084-1.648,3.115-2.402,4.523-6.411,3.588-10.214-1.009-4.102-4.504-7.06-9.353-7.915-3.278-.579-6.614.213-9.152,2.171-4.576,3.532-6.659,9.427-5.311,15.02,1.453,6.032,6.583,10.427,13.723,11.756,5.075.944,10.016-.2,13.912-3.223.413-.322.812-.654,1.196-.997,5.028-4.494,7.321-10.979,6.29-17.79-.69-4.559-2.798-8.667-5.933-11.802Z" fill="url(#s)"/><path d="M542.558,6.716c-3.135-3.136-7.243-5.243-11.802-5.933-6.811-1.031-13.296,1.262-17.79,6.29-.343.384-.675.782-.996,1.195-3.024,3.898-4.168,8.839-3.224,13.913,1.329,7.138,5.723,12.269,11.756,13.723,5.593,1.349,11.488-.735,15.019-5.31,1.959-2.538,2.75-5.874,2.171-9.152-.855-4.847-3.814-8.344-7.915-9.353-3.802-.935-7.812.473-10.214,3.588-1.346,1.746-1.931,3.906-1.648,6.084.281,2.16,1.383,4.076,3.108,5.402.66.506,1.605.383,2.113-.277.507-.66.394-1.598-.277-2.113-1.089-.826-1.779-2.04-1.956-3.4-.179-1.379.192-2.748,1.046-3.855,1.674-2.171,4.465-3.153,7.109-2.502,2.951.725,5.016,3.259,5.668,6.951.431,2.446-.148,4.92-1.59,6.788-2.807,3.635-7.489,5.293-11.928,4.223-4.918-1.185-8.38-5.323-9.5-11.346-.785-4.218.153-8.306,2.641-11.514.277-.357.565-.702.862-1.035,3.805-4.257,9.306-6.195,15.093-5.319,6.074.92,11.208,4.768,13.739,10.294l.268.586c2.036,4.14,3.49,10.584,3.813,16.855.844,18.876,12.815,25.007,14.088,25.605,5.43,3.214,12.502,1.426,15.799-4.009,2.715-4.476,1.308-10.337-3.121-13.055-1.84-1.129-4.225-1.4-6.381-.723-3.116.978-5.178,3.247-5.516,6.073-.308,2.585.929,5.12,3.151,6.458.713.429,1.638.198,2.068-.514.429-.712.202-1.636-.514-2.068-1.205-.724-1.88-2.108-1.713-3.518.196-1.638,1.444-2.934,3.426-3.555,1.336-.42,2.796-.264,3.905.416,3.033,1.858,3.979,5.861,2.121,8.925-2.454,4.044-7.722,5.367-11.744,2.947-.053-.031-.108-.061-.165-.086-.469-.212-11.608-5.457-12.393-23.039-.348-6.764-1.882-13.49-4.101-18.002l-.25-.547c-1.052-2.3-2.49-4.351-4.225-6.086Z" fill="url(#t)"/><path d="M547.102,48.256c-.203.476-5.072,11.724-12.016,17.145-3.319,2.591-6.325,2.23-7.831.723-1.506-1.506-1.867-4.512.725-7.83,5.42-6.945,16.669-11.813,17.145-12.016.566-.243,1.223-.116,1.658.32s.562,1.092.32,1.658ZM533.232,63.027c3.919-3.06,7.224-8.409,9.183-12.063-3.653,1.957-8.997,5.259-12.061,9.184h0c-1.386,1.776-1.536,3.279-.968,3.848.568.567,2.072.417,3.847-.968ZM529.178,59.232l-.012-.012.012.012Z" fill="url(#u)"/><path d="M552.494,54.274c.336.527,3.262,5.259,2.474,9.185-.373,1.857-1.937,3.149-3.805,3.143-1.88-.007-3.386-1.266-3.746-3.135h0c-.758-3.919,2.2-8.667,2.54-9.196.277-.432.756-.693,1.27-.692.403,0,.784.162,1.063.441.076.076.145.161.205.254ZM550.375,62.894c.118.604.551.695.799.695.209.001.71-.068.841-.722.267-1.331-.209-3.047-.8-4.487-.607,1.446-1.099,3.174-.84,4.515l-1.479.286,1.479-.286Z" fill="url(#v)"/><path d="M539.8,42.153c.001.513-.259.992-.692,1.27-.528.34-5.277,3.297-9.196,2.54h0c-1.869-.362-3.129-1.867-3.135-3.746-.007-1.868,1.286-3.432,3.142-3.805,3.926-.788,8.658,2.138,9.185,2.474.093.059.178.128.254.205.278.279.441.659.441,1.063ZM530.485,43.005c1.336.258,3.065-.236,4.515-.843-1.436-.591-3.15-1.065-4.487-.797-.654.132-.724.632-.722.841,0,.156.036.387.215.565.104.104.257.19.48.233Z" fill="url(#w)"/><polygon points="573.06 193.274 567.313 187.493 561.566 193.274 567.313 199.055 573.06 193.274" fill="url(#x)"/><polygon points="573.06 181.712 567.313 175.931 561.566 181.712 567.313 187.494 573.06 181.712" fill="url(#y)"/><polygon points="573.06 118.889 567.313 113.107 561.566 118.889 567.313 124.67 573.06 118.889" fill="url(#z)"/><polygon points="573.06 107.327 567.313 101.546 561.566 107.327 567.313 113.108 573.06 107.327" fill="url(#aa)"/><path d="M567.313,70.09c.795,0,1.439.644,1.439,1.439v138.725c0,.795-.644,1.439-1.439,1.439s-1.439-.644-1.439-1.439V71.529c0-.795.644-1.439,1.439-1.439Z" fill="url(#ab)"/><polygon points="400.446 31.863 406.227 26.117 400.446 20.37 394.664 26.117 400.446 31.863" fill="url(#ac)"/><polygon points="412.007 31.863 417.789 26.117 412.007 20.37 406.226 26.117 412.007 31.863" fill="url(#ad)"/><polygon points="474.831 31.863 480.612 26.117 474.831 20.37 469.05 26.117 474.831 31.863" fill="url(#ae)"/><polygon points="486.393 31.863 492.174 26.117 486.393 20.37 480.611 26.117 486.393 31.863" fill="url(#af)"/><path d="M383.466,24.677h138.725c.795,0,1.439.644,1.439,1.439,0,.795-.644,1.439-1.439,1.439h-138.725c-.795,0-1.439-.644-1.439-1.439,0-.795.644-1.439,1.439-1.439Z" fill="url(#ag)"/><path d="M579.323,38.883c-3.157,1.604-6.693,1.531-9.695-.196-.227-.13-.451-.27-.682-.423-2.111-1.419-3.528-3.744-3.886-6.378-.515-3.768.848-7.056,3.656-8.803,2.594-1.611,5.911-1.546,8.449.17,1.459.985,2.447,2.587,2.711,4.393.389,2.67-.568,5.01-2.576,6.272-1.859,1.167-4.238,1.124-6.062-.11-2.177-1.471-2.755-4.437-1.291-6.609.497-.738,1.498-.934,2.236-.436s.933,1.499.436,2.236c-.473.702-.283,1.662.423,2.141.767.518,1.766.537,2.545.048.898-.564,1.303-1.688,1.099-3.077-.133-.912-.616-1.709-1.326-2.189-1.487-1.005-3.428-1.045-4.946-.102-1.713,1.066-2.505,3.118-2.164,5.63.239,1.75,1.123,3.219,2.484,4.133.16.107.322.208.493.306,2.046,1.179,4.465,1.223,6.633.121,2.318-1.175,3.868-3.41,4.149-5.977l.038-.344c.278-2.027-.018-4.993-.768-7.732-2.497-8.874,2.03-13.788,2.707-14.439,1.089-1.241,2.608-2.009,4.272-2.137,1.688-.13,3.329.405,4.619,1.506,2.247,1.92,2.537,5.318.644,7.575-.802.953-2.097,1.577-3.416,1.599-1.895.034-3.461-.864-4.189-2.402-.535-1.131-.507-2.432.034-3.522-.9,1.07-3.33,4.689-1.566,10.957.873,3.189,1.192,6.566.859,8.99l-.033.3c-.27,2.487-1.38,4.755-3.102,6.477-.803.803-1.742,1.489-2.79,2.021ZM588.766,9.138c.678.578.758,1.595.181,2.272-.205.24-.249.583-.112.874.175.37.608.568,1.218.557.396-.007.786-.186,1.004-.447.762-.909.642-2.28-.267-3.055-.638-.544-1.447-.809-2.28-.745-.268.021-.528.075-.776.159.365.003.733.13,1.032.385Z" fill="url(#ah)"/><path d="M586.258,9.785c-.658.699-5.567,5.205-14.429,2.711-2.749-.753-5.715-1.049-7.787-.765l-.301.032c-2.563.278-4.796,1.828-5.976,4.149-1.101,2.17-1.058,4.587.124,6.639.095.166.197.328.298.481.92,1.369,2.389,2.253,4.139,2.492,2.512.342,4.56-.449,5.631-2.164.942-1.517.902-3.459-.102-4.946-.48-.709-1.277-1.192-2.188-1.325-1.391-.203-2.512.203-3.077,1.099-.489.779-.47,1.777.048,2.544.48.706,1.44.897,2.142.424.738-.497,1.738-.302,2.236.436.497.738.302,1.74-.436,2.236-2.172,1.464-5.138.885-6.61-1.292-1.234-1.823-1.277-4.203-.109-6.062,1.264-2.004,3.602-2.964,6.272-2.575,1.806.264,3.407,1.251,4.392,2.71,1.716,2.539,1.782,5.856.17,8.45-1.744,2.808-5.033,4.171-8.803,3.656-2.635-.358-4.959-1.775-6.384-3.894-.146-.222-.286-.445-.414-.668-1.731-3.008-1.803-6.543-.2-9.701,1.674-3.295,4.851-5.495,8.499-5.893l.258-.027c2.466-.338,5.843-.018,9.042.858,6.274,1.766,9.894-.682,10.948-1.57-1.09.541-2.392.57-3.524.034-1.538-.728-2.436-2.293-2.401-4.188.022-1.319.617-2.602,1.599-3.417,2.257-1.893,5.655-1.603,7.575.644,1.101,1.291,1.637,2.932,1.506,4.619-.117,1.52-.76,2.914-1.824,3.978-.101.101-.205.198-.313.293ZM580.936,3.724c-.011.61.186,1.043.557,1.218.29.137.633.092.874-.113.677-.577,1.695-.497,2.272.181.255.3.381.666.384,1.031.086-.248.14-.508.16-.775.064-.833-.2-1.642-.744-2.28-.775-.909-2.146-1.029-3.055-.267-.024.021-.046.041-.067.062-.23.23-.373.581-.379.942Z" fill="url(#ai)"/><path d="M586.706,543.542c-1.726,1.734-3.767,3.168-6.054,4.218l-.583.268c-4.45,2.197-11.141,3.728-17.859,4.076-17.6.789-22.877,12.257-22.929,12.372-.025.057-.054.112-.085.165-2.408,4.015-1.093,9.275,2.931,11.725,3.047,1.854,7.025.906,8.879-2.118.675-1.106.83-2.564.413-3.898-.618-1.978-1.907-3.224-3.537-3.42-1.401-.168-2.778.506-3.5,1.71-.429.714-1.348.941-2.057.513-.709-.429-.938-1.352-.512-2.064,1.335-2.218,3.852-3.454,6.424-3.146,2.811.337,5.069,2.396,6.041,5.506.673,2.152.404,4.533-.719,6.37-2.712,4.427-8.535,5.828-12.987,3.116-5.407-3.292-7.185-10.351-3.988-15.773.597-1.269,6.693-13.221,25.481-14.064,6.229-.322,12.639-1.774,16.719-3.788l.621-.286c5.495-2.525,9.324-7.651,10.24-13.716.871-5.778-1.057-11.27-5.292-15.068-.331-.296-.675-.584-1.031-.861-3.19-2.483-7.257-3.42-11.453-2.636-5.993,1.119-10.107,4.576-11.286,9.484-1.065,4.432.584,9.106,4.2,11.909,1.858,1.439,4.32,2.017,6.752,1.586,3.674-.65,6.195-2.713,6.914-5.658.647-2.64-.329-5.426-2.489-7.097-1.101-.853-2.464-1.223-3.835-1.044-1.353.176-2.56.865-3.382,1.952-.525.667-1.446.782-2.102.277-.656-.507-.779-1.45-.276-2.109,1.316-1.721,3.224-2.822,5.374-3.103,2.166-.283,4.315.302,6.052,1.645,3.099,2.398,4.499,6.401,3.569,10.197-1.004,4.095-4.481,7.048-9.304,7.902-3.261.578-6.58-.212-9.104-2.167-4.552-3.526-6.625-9.412-5.283-14.995,1.445-6.022,6.549-10.41,13.651-11.736,5.048-.943,9.963.2,13.84,3.217.411.321.808.653,1.189.995,5.002,4.487,7.283,10.96,6.257,17.76-.686,4.552-2.783,8.652-5.902,11.782Z" fill="url(#aj)"/><path d="M542.83,587.573c-3.119,3.131-7.205,5.234-11.74,5.923-6.775,1.029-13.226-1.26-17.697-6.28-.342-.383-.672-.781-.991-1.192-3.008-3.891-4.146-8.824-3.207-13.89,1.322-7.126,5.693-12.248,11.694-13.699,5.563-1.347,11.428.734,14.941,5.301,1.949,2.534,2.736,5.864,2.16,9.137-.851,4.839-3.795,8.33-7.874,9.337-3.783.933-7.772-.472-10.161-3.582-1.339-1.743-1.921-3.9-1.64-6.074.28-2.156,1.376-4.069,3.092-5.393.656-.505,1.597-.382,2.102.277.505.659.392,1.595-.276,2.109-1.083.825-1.769,2.036-1.945,3.395-.178,1.376.191,2.744,1.04,3.849,1.665,2.167,4.441,3.148,7.072,2.498,2.936-.724,4.99-3.254,5.638-6.939.429-2.441-.147-4.912-1.581-6.777-2.792-3.629-7.45-5.284-11.866-4.215-4.893,1.183-8.336,5.314-9.451,11.327-.781,4.211.152,8.292,2.628,11.495.275.356.562.701.857,1.033,3.785,4.25,9.257,6.184,15.015,5.31,6.043-.918,11.149-4.76,13.667-10.276l.267-.585c2.025-4.133,3.472-10.566,3.793-16.827.84-18.844,12.748-24.965,14.015-25.562,5.402-3.208,12.437-1.424,15.717,4.003,2.701,4.469,1.302,10.32-3.105,13.033-1.83,1.127-4.203,1.397-6.348.722-3.1-.976-5.151-3.242-5.487-6.063-.306-2.58.924-5.111,3.135-6.447.709-.428,1.63-.198,2.057.513.427.711.201,1.633-.512,2.064-1.199.723-1.871,2.105-1.704,3.512.195,1.635,1.437,2.929,3.408,3.549,1.329.419,2.782.264,3.884-.415,3.017-1.855,3.958-5.851,2.11-8.91-2.441-4.038-7.682-5.358-11.683-2.942-.053.031-.107.061-.164.085-.466.212-11.547,5.448-12.328,23-.347,6.753-1.872,13.467-4.08,17.972l-.249.546c-1.046,2.296-2.477,4.344-4.203,6.076Z" fill="url(#ak)"/><path d="M547.032,547.758c-.433.434-1.086.561-1.649.319-.474-.203-11.664-5.063-17.056-11.996-2.578-3.313-2.219-6.314-.721-7.817,1.499-1.504,4.489-1.864,7.791.722,6.908,5.412,11.751,16.641,11.954,17.116.241.565.115,1.221-.318,1.655ZM529.725,530.39c-.565.568-.415,2.069.963,3.841h0c3.048,3.919,8.365,7.215,11.998,9.169-1.949-3.648-5.236-8.988-9.135-12.043-1.767-1.383-3.263-1.533-3.827-.967ZM529.508,535.157l.012-.012-.012.012Z" fill="url(#al)"/><path d="M552.511,540.349c-.277.278-.656.44-1.057.44-.51.001-.987-.259-1.263-.691-.338-.527-3.28-5.268-2.526-9.18h0c.358-1.866,1.856-3.123,3.726-3.13,1.858-.007,3.414,1.284,3.785,3.137.784,3.919-2.126,8.644-2.461,9.17-.059.093-.128.178-.204.254ZM549.135,531.204l1.471.286c-.258,1.339.232,3.064.835,4.507.589-1.438,1.062-3.15.796-4.48-.131-.653-.629-.722-.837-.721-.246,0-.677.09-.795.693l-1.471-.286Z" fill="url(#am)"/><path d="M539.648,553.257c-.076.076-.16.145-.253.204-.524.336-5.232,3.257-9.137,2.47-1.847-.372-3.133-1.934-3.126-3.798.007-1.876,1.26-3.378,3.119-3.739h0c3.898-.756,8.622,2.196,9.148,2.535.43.277.689.755.688,1.267,0,.403-.162.783-.439,1.061ZM530.343,551.579c-.178.178-.214.408-.214.564-.001.209.068.708.719.84,1.33.268,3.035-.205,4.464-.795-1.442-.606-3.163-1.1-4.491-.842-.221.043-.374.129-.477.233Z" fill="url(#an)"/><polygon points="573.173 401.329 567.456 407.101 561.739 401.329 567.456 395.558 573.173 401.329" fill="url(#ao)"/><polygon points="573.173 412.872 567.456 418.643 561.739 412.872 567.456 407.1 573.173 412.872" fill="url(#ap)"/><polygon points="573.173 475.589 567.456 481.361 561.739 475.589 567.456 469.818 573.173 475.589" fill="url(#aq)"/><polygon points="573.173 487.132 567.456 492.903 561.739 487.132 567.456 481.36 573.173 487.132" fill="url(#ar)"/><path d="M567.456,524.306c.791,0,1.432-.643,1.432-1.437v-138.491c0-.793-.641-1.437-1.432-1.437s-1.432.643-1.432,1.437v138.491c0,.794.641,1.437,1.432,1.437Z" fill="url(#as)"/><polygon points="401.458 562.468 407.209 568.205 401.458 573.942 395.707 568.205 401.458 562.468" fill="url(#at)"/><polygon points="412.959 562.468 418.711 568.205 412.959 573.942 407.208 568.205 412.959 562.468" fill="url(#au)"/><polygon points="475.456 562.468 481.207 568.205 475.456 573.942 469.705 568.205 475.456 562.468" fill="url(#av)"/><polygon points="486.957 562.468 492.708 568.205 486.957 573.942 481.206 568.205 486.957 562.468" fill="url(#aw)"/><path d="M384.567,569.642h138.002c.791,0,1.432-.643,1.432-1.437s-.641-1.437-1.432-1.437h-138.002c-.791,0-1.432.643-1.432,1.437s.641,1.437,1.432,1.437Z" fill="url(#ax)"/><path d="M582.179,557.477c1.713,1.719,2.817,3.983,3.086,6.466l.033.3c.331,2.42.013,5.791-.855,8.975-1.755,6.257.663,9.871,1.558,10.939-.538-1.088-.566-2.387-.033-3.516.724-1.536,2.282-2.432,4.167-2.398,1.313.022,2.6.645,3.398,1.597,1.883,2.254,1.595,5.646-.641,7.563-1.284,1.1-2.916,1.634-4.595,1.504-1.655-.127-3.166-.895-4.249-2.133-.673-.65-5.177-5.556-2.693-14.415.746-2.734,1.04-5.695.764-7.719l-.038-.344c-.279-2.563-1.822-4.794-4.128-5.967-2.158-1.1-4.563-1.056-6.599.12-.171.098-.332.199-.491.306-1.354.912-2.233,2.379-2.471,4.126-.339,2.508.449,4.556,2.153,5.621,1.51.941,3.44.901,4.92-.102.706-.479,1.186-1.275,1.319-2.185.203-1.387-.2-2.509-1.093-3.072-.775-.488-1.769-.469-2.532.048-.702.478-.891,1.437-.421,2.137.495.736.3,1.735-.434,2.232s-1.73.302-2.225-.435c-1.456-2.169-.881-5.129,1.284-6.598,1.814-1.232,4.181-1.275,6.03-.11,1.997,1.26,2.949,3.596,2.562,6.261-.262,1.803-1.245,3.402-2.697,4.385-2.526,1.713-5.825,1.778-8.405.169-2.793-1.744-4.149-5.026-3.637-8.788.356-2.63,1.766-4.951,3.866-6.367.23-.153.452-.293.678-.423,2.987-1.724,6.503-1.797,9.644-.196,1.043.531,1.976,1.216,2.775,2.018ZM587.77,585.54c.246.084.505.138.771.159.828.064,1.634-.2,2.268-.744.904-.774,1.024-2.142.266-3.05-.216-.26-.605-.439-.998-.446-.607-.011-1.038.186-1.212.556-.136.29-.092.632.112.872.574.676.494,1.692-.18,2.268-.298.255-.664.381-1.027.384Z" fill="url(#ay)"/><path d="M586.613,584.802c1.059,1.063,1.698,2.454,1.815,3.972.13,1.685-.403,3.323-1.499,4.612-1.91,2.244-5.29,2.532-7.536.643-.976-.813-1.568-2.094-1.59-3.411-.034-1.892.859-3.454,2.389-4.181,1.126-.535,2.421-.506,3.506.034-1.049-.886-4.651-3.33-10.891-1.567-3.183.875-6.541,1.193-8.995.856l-.257-.027c-3.629-.396-6.79-2.593-8.455-5.883-1.595-3.153-1.523-6.682.199-9.685.127-.223.266-.445.412-.666,1.418-2.116,3.73-3.53,6.351-3.888,3.75-.514,7.021.846,8.757,3.65,1.603,2.589,1.537,5.901-.169,8.436-.98,1.457-2.573,2.442-4.369,2.706-2.656.389-4.982-.57-6.239-2.571-1.161-1.856-1.118-4.231.109-6.051,1.464-2.173,4.414-2.751,6.575-1.29.734.496.929,1.496.434,2.233-.495.737-1.491.932-2.224.435-.698-.472-1.653-.282-2.131.423-.515.766-.534,1.762-.048,2.54.563.895,1.678,1.3,3.061,1.097.907-.133,1.7-.615,2.177-1.323.999-1.485,1.039-3.424.102-4.938-1.065-1.712-3.103-2.502-5.601-2.16-1.74.238-3.202,1.121-4.117,2.488-.101.152-.203.314-.297.48-1.175,2.048-1.219,4.462-.123,6.627,1.173,2.317,3.394,3.864,5.944,4.142l.3.032c2.061.284,5.012-.012,7.747-.764,8.815-2.489,13.699,2.009,14.353,2.707.107.095.21.191.311.292ZM581.385,591.501c.021.021.043.041.067.062.904.761,2.268.641,3.039-.267.541-.636.804-1.444.74-2.276-.02-.266-.074-.526-.159-.774-.003.365-.128.73-.382,1.03-.574.676-1.587.757-2.26.181-.239-.205-.58-.249-.869-.112-.369.174-.565.607-.554,1.216.006.36.148.711.377.941Z" fill="url(#az)"/><path d="M7.612,543.454c1.735,1.736,3.786,3.174,6.086,4.225l.586.268c4.473,2.201,11.199,3.734,17.953,4.083,17.692.79,22.996,12.278,23.049,12.393.025.057.054.112.086.165,2.42,4.022,1.099,9.29-2.946,11.745-3.063,1.857-7.062.907-8.925-2.121-.679-1.108-.834-2.568-.415-3.904.621-1.981,1.917-3.23,3.555-3.426,1.409-.169,2.793.507,3.518,1.713.432.715,1.355.942,2.068.514.712-.429.943-1.354.514-2.068-1.342-2.222-3.872-3.46-6.458-3.151-2.825.338-5.095,2.4-6.073,5.516-.676,2.156-.406,4.541.723,6.38,2.726,4.434,8.58,5.838,13.055,3.122,5.435-3.297,7.223-10.369,4.009-15.8-.6-1.271-6.728-13.243-25.615-14.087-6.261-.323-12.705-1.777-16.806-3.795l-.625-.286c-5.524-2.529-9.373-7.664-10.294-13.739-.875-5.787,1.063-11.289,5.319-15.093.333-.297.678-.585,1.036-.863,3.207-2.488,7.295-3.426,11.513-2.64,6.025,1.121,10.16,4.584,11.345,9.5,1.071,4.44-.587,9.122-4.222,11.929-1.868,1.441-4.342,2.02-6.788,1.589-3.694-.651-6.228-2.718-6.951-5.668-.651-2.644.331-5.435,2.502-7.109,1.107-.854,2.477-1.225,3.856-1.046,1.36.177,2.574.867,3.4,1.955.528.668,1.454.784,2.113.277.66-.507.784-1.453.277-2.113-1.323-1.724-3.241-2.826-5.402-3.108-2.177-.283-4.338.302-6.084,1.648-3.115,2.402-4.523,6.411-3.588,10.214,1.009,4.102,4.504,7.06,9.353,7.915,3.278.579,6.614-.213,9.152-2.171,4.576-3.532,6.659-9.427,5.311-15.02-1.453-6.032-6.583-10.427-13.723-11.756-5.075-.944-10.016.2-13.912,3.223-.413.322-.812.654-1.196.997-5.028,4.494-7.321,10.979-6.29,17.79.69,4.559,2.798,8.667,5.933,11.802Z" fill="url(#ba)"/><path d="M51.718,587.56c3.135,3.136,7.243,5.243,11.802,5.933,6.811,1.031,13.296-1.262,17.79-6.29.343-.384.675-.782.996-1.195,3.024-3.898,4.168-8.839,3.224-13.913-1.329-7.138-5.723-12.269-11.756-13.723-5.593-1.349-11.488.735-15.019,5.31-1.959,2.538-2.75,5.874-2.171,9.152.855,4.847,3.814,8.344,7.915,9.353,3.802.935,7.812-.473,10.214-3.588,1.346-1.746,1.931-3.906,1.648-6.084-.281-2.16-1.383-4.076-3.108-5.402-.66-.506-1.605-.383-2.113.277-.507.66-.394,1.598.277,2.113,1.089.826,1.779,2.04,1.956,3.4.179,1.379-.192,2.748-1.046,3.855-1.674,2.171-4.465,3.153-7.109,2.502-2.951-.725-5.016-3.259-5.668-6.951-.431-2.446.148-4.92,1.59-6.788,2.807-3.635,7.489-5.293,11.928-4.223,4.918,1.185,8.38,5.323,9.5,11.346.785,4.218-.153,8.306-2.641,11.514-.277.357-.565.702-.862,1.035-3.805,4.257-9.306,6.195-15.093,5.319-6.074-.92-11.208-4.768-13.739-10.294l-.268-.586c-2.036-4.14-3.49-10.584-3.813-16.855-.844-18.876-12.815-25.007-14.088-25.605-5.43-3.214-12.502-1.426-15.799,4.009-2.715,4.476-1.308,10.337,3.121,13.055,1.84,1.129,4.225,1.4,6.381.723,3.116-.978,5.178-3.247,5.516-6.073.308-2.585-.929-5.12-3.151-6.458-.713-.429-1.638-.198-2.068.514-.429.712-.202,1.636.514,2.068,1.205.724,1.88,2.108,1.713,3.518-.196,1.638-1.444,2.934-3.426,3.555-1.336.42-2.796.264-3.905-.416-3.033-1.858-3.979-5.861-2.121-8.925,2.454-4.044,7.722-5.367,11.744-2.947.053.031.108.061.165.086.469.212,11.608,5.457,12.393,23.039.348,6.764,1.882,13.49,4.101,18.002l.25.547c1.052,2.3,2.49,4.351,4.225,6.086Z" fill="url(#bb)"/><path d="M47.174,546.02c.203-.476,5.072-11.724,12.016-17.145,3.319-2.591,6.325-2.23,7.831-.723,1.506,1.506,1.867,4.512-.725,7.83-5.42,6.945-16.669,11.813-17.145,12.016-.566.243-1.223.116-1.658-.32s-.562-1.092-.32-1.658ZM61.044,531.249c-3.919,3.06-7.224,8.409-9.183,12.063,3.653-1.957,8.997-5.259,12.061-9.184h0c1.386-1.776,1.536-3.279.968-3.848-.568-.567-2.072-.417-3.847.968ZM65.098,535.044l.012.012-.012-.012Z" fill="url(#bc)"/><path d="M41.782,540.002c-.336-.527-3.262-5.259-2.474-9.185.373-1.857,1.937-3.149,3.805-3.143,1.88.007,3.386,1.266,3.746,3.135h0c.758,3.919-2.2,8.667-2.54,9.196-.277.432-.756.693-1.27.692-.403,0-.784-.162-1.063-.441-.076-.076-.145-.161-.205-.254ZM43.901,531.382c-.118-.604-.551-.695-.799-.695-.209-.001-.71.068-.841.722-.267,1.331.209,3.047.8,4.487.607-1.446,1.099-3.174.84-4.515l1.479-.286-1.479.286Z" fill="url(#bd)"/><path d="M54.476,552.123c-.001-.513.259-.992.692-1.27.528-.34,5.277-3.297,9.196-2.54h0c1.869.362,3.129,1.867,3.135,3.746.007,1.868-1.286,3.432-3.142,3.805-3.926.788-8.658-2.138-9.185-2.474-.093-.059-.178-.128-.254-.205-.278-.279-.441-.659-.441-1.063ZM63.791,551.271c-1.336-.258-3.065.236-4.515.843,1.436.591,3.15,1.065,4.487.797.654-.132.724-.632.722-.841,0-.156-.036-.387-.215-.565-.104-.104-.257-.19-.48-.233Z" fill="url(#be)"/><polygon points="21.216 401.002 26.963 406.783 32.71 401.002 26.963 395.221 21.216 401.002" fill="url(#bf)"/><polygon points="21.216 412.564 26.963 418.345 32.71 412.564 26.963 406.782 21.216 412.564" fill="url(#bg)"/><polygon points="21.216 475.387 26.963 481.169 32.71 475.387 26.963 469.606 21.216 475.387" fill="url(#bh)"/><polygon points="21.216 486.949 26.963 492.73 32.71 486.949 26.963 481.168 21.216 486.949" fill="url(#bi)"/><path d="M26.963,524.186c-.795,0-1.439-.644-1.439-1.439v-138.725c0-.795.644-1.439,1.439-1.439s1.439.644,1.439,1.439v138.725c0,.795-.644,1.439-1.439,1.439Z" fill="url(#bj)"/><polygon points="193.83 562.413 188.049 568.159 193.83 573.906 199.612 568.159 193.83 562.413" fill="url(#bk)"/><polygon points="182.269 562.413 176.487 568.159 182.269 573.906 188.05 568.159 182.269 562.413" fill="url(#bl)"/><polygon points="119.445 562.413 113.664 568.159 119.445 573.906 125.226 568.159 119.445 562.413" fill="url(#bm)"/><polygon points="107.883 562.413 102.102 568.159 107.883 573.906 113.665 568.159 107.883 562.413" fill="url(#bn)"/><path d="M210.81,569.599H72.085c-.795,0-1.439-.644-1.439-1.439,0-.795.644-1.439,1.439-1.439h138.725c.795,0,1.439.644,1.439,1.439,0,.795-.644,1.439-1.439,1.439Z" fill="url(#bo)"/><path d="M14.953,555.393c3.157-1.604,6.693-1.531,9.695.196.227.13.451.27.682.423,2.111,1.419,3.528,3.744,3.886,6.378.515,3.768-.848,7.056-3.656,8.803-2.594,1.611-5.911,1.546-8.449-.17-1.459-.985-2.447-2.587-2.711-4.393-.389-2.67.568-5.01,2.576-6.272,1.859-1.167,4.238-1.124,6.062.11,2.177,1.471,2.755,4.437,1.291,6.609-.497.738-1.498.934-2.236.436s-.933-1.499-.436-2.236c.473-.702.283-1.662-.423-2.141-.767-.518-1.766-.537-2.545-.048-.898.564-1.303,1.688-1.099,3.077.133.912.616,1.709,1.326,2.189,1.487,1.005,3.428,1.045,4.946.102,1.713-1.066,2.505-3.118,2.164-5.63-.239-1.75-1.123-3.219-2.484-4.133-.16-.107-.322-.208-.493-.306-2.046-1.179-4.465-1.223-6.633-.121-2.318,1.175-3.868,3.41-4.149,5.977l-.038.344c-.278,2.027.018,4.993.768,7.732,2.497,8.874-2.03,13.788-2.707,14.439-1.089,1.241-2.608,2.009-4.272,2.137-1.688.13-3.329-.405-4.619-1.506-2.247-1.92-2.537-5.318-.644-7.575.802-.953,2.097-1.577,3.416-1.599,1.895-.034,3.461.864,4.189,2.402.535,1.131.507,2.432-.034,3.522.9-1.07,3.33-4.689,1.566-10.957-.873-3.189-1.192-6.566-.859-8.99l.033-.3c.27-2.487,1.38-4.755,3.102-6.477.803-.803,1.742-1.489,2.79-2.021ZM5.51,585.138c-.678-.578-.758-1.595-.181-2.272.205-.24.249-.583.112-.874-.175-.37-.608-.568-1.218-.557-.396.007-.786.186-1.004.447-.762.909-.642,2.28.267,3.055.638.544,1.447.809,2.28.745.268-.021.528-.075.776-.159-.365-.003-.733-.13-1.032-.385Z" fill="url(#bp)"/><path d="M8.018,584.491c.658-.699,5.567-5.205,14.429-2.711,2.749.753,5.715,1.049,7.787.765l.301-.032c2.563-.278,4.796-1.828,5.976-4.149,1.101-2.17,1.058-4.587-.124-6.639-.095-.166-.197-.328-.298-.481-.92-1.369-2.389-2.253-4.139-2.492-2.512-.342-4.56.449-5.631,2.164-.942,1.517-.902,3.459.102,4.946.48.709,1.277,1.192,2.188,1.325,1.391.203,2.512-.203,3.077-1.099.489-.779.47-1.777-.048-2.544-.48-.706-1.44-.897-2.142-.424-.738.497-1.738.302-2.236-.436-.497-.738-.302-1.74.436-2.236,2.172-1.464,5.138-.885,6.61,1.292,1.234,1.823,1.277,4.203.109,6.062-1.264,2.004-3.602,2.964-6.272,2.575-1.806-.264-3.407-1.251-4.392-2.71-1.716-2.539-1.782-5.856-.17-8.45,1.744-2.808,5.033-4.171,8.803-3.656,2.635.358,4.959,1.775,6.384,3.894.146.222.286.445.414.668,1.731,3.008,1.803,6.543.2,9.701-1.674,3.295-4.851,5.495-8.499,5.893l-.258.027c-2.466.338-5.843.018-9.042-.858-6.274-1.766-9.894.682-10.948,1.57,1.09-.541,2.392-.57,3.524-.034,1.538.728,2.436,2.293,2.401,4.188-.022,1.319-.617,2.602-1.599,3.417-2.257,1.893-5.655,1.603-7.575-.644-1.101-1.291-1.637-2.932-1.506-4.619.117-1.52.76-2.914,1.824-3.978.101-.101.205-.198.313-.293ZM13.34,590.552c.011-.61-.186-1.043-.557-1.218-.29-.137-.633-.092-.874.113-.677.577-1.695.497-2.272-.181-.255-.3-.381-.666-.384-1.031-.086.248-.14.508-.16.775-.064.833.2,1.642.744,2.28.775.909,2.146,1.029,3.055.267.024-.021.046-.041.067-.062.23-.23.373-.581.379-.942Z" fill="url(#bq)"/><path d="M248.56,107.144c.467-1.142,1.488-1.979,2.05-3.12,3.151-6.389,1.722-16.287,3.974-23.352,1.727-5.419,6.47-10.3,11.305-13.103l2.565-1.149c-5.906,5.838-10.335,12.698-10.873,21.228-.213,3.38.356,6.883-.265,10.211,10.296-7.203,14.777-18.926,17.695-30.72,3.096-12.515,4.607-26.002-4.561-36.404-1.279-1.451-6.338-6.224-8.191-6.032-1.332.138-1.431,2.149-1.507,3.239-.755,10.826-1.311,21.127,7.303,29.065l3.052,3.18c-5.508-1.868-11.762-5.047-14.965-10.103-6.355-10.032,4.187-22.504-4.554-33.118-1.367-1.66-2.986-2.527-4.62-3.734,15.363,2.944,31.535,12.847,33.926,29.61,1.959,13.736-4.317,38.837-12.975,49.837-4.873,6.191-12.164,11.341-19.357,14.466Z" fill="url(#br)"/><path d="M348.31,8.19c-3.614,3.363-5.772,7.311-6.113,12.323-.703,10.351.731,21.035-5.29,30.261-1.672,2.562-4.815,5.271-5.77,8.026-2.025,5.84.176,17.088,3.067,22.523.997,1.875,2.401,3.513,3.759,5.126-6.077-1.646-10.268-5.528-13.479-10.793-2.816-4.616-5.214-10.595-7.147-15.669-1.843-4.837-3.629-9.817-4.579-14.923-.692-.121-.411.099-.553.378-1.987,3.893-3.164,13.087-3.172,17.518-.012,6.562,3.405,14.892-4.232,18.448,2.676-6.404,1.252-13.993,1.581-20.834.466-9.688,1.872-18.153,7.601-26.092,8.56-11.862,21.117-20.345,34.327-26.291ZM328.676,72.654c-.955-3.946-1.916-8.208-1.555-12.301.465-5.273,3.979-9.831,6.114-14.58,3.444-7.663,4.424-14.187,4.727-22.599.025-.698.234-3.406-.415-3.563-4.205,1.46-8.154,4.12-11.525,7.011-2.667,2.287-8.158,7.752-9.765,10.663-1.13,2.046-.161,4.761.348,6.985,2.005,8.749,5.752,17.906,10.106,25.71l1.965,2.674Z" fill="url(#bs)"/><path d="M308.249,31.801c-1.469,3.386-3.224,6.683-3.981,10.345-1.001-1.094-.992-2.46-2.254-3.447-2.033-1.59-7.176-1.005-8.89.923-2.614,2.941-2.284,12.901-3.71,16.848,4.043-.508,8.438-1.102,11.542-3.976.203-.041.163.244.126.39-.539,2.15-2.289,4.57-2.938,6.754-2.004-.398-8.117-1.312-9.231.71l-3.077,19.208c5.498-1.805,12.019-1.8,15.205-7.346.18-.314.829-2.729,1.372-2.207-.049,1.981.033,3.972-.269,5.944-.198,1.293-.749,4.918-2.257,5.19-8.137.052-16.056.904-22.94,5.577,3.623-7.907,5.656-16.564,7.083-25.148,1.285-7.728,2.601-16.18,1.405-23.931,7.922-.255,15.543-2.936,22.814-5.837Z" fill="url(#bt)"/><path d="M323.637,49.306c-.806.135-.423-.204-.536-.644-.711-2.763-.961-6.572.04-9.268,1.796-4.835,7.476-8.337,10.84-12.106-2.042,8.204-10.454,13.02-10.345,22.017Z" fill="url(#bu)"/></svg>