<?xml version="1.0" encoding="UTF-8"?><svg id="a" xmlns="http://www.w3.org/2000/svg" xmlns:xlink="http://www.w3.org/1999/xlink" viewBox="0 0 595.276 595.276"><defs><filter id="b" x="-6" y="-4.724" width="606" height="608" filterUnits="userSpaceOnUse"><feOffset dx="0" dy="3"/><feGaussianBlur result="c" stdDeviation="5"/><feFlood flood-color="#000" flood-opacity="1"/><feComposite in2="c" operator="in"/><feComposite in="SourceGraphic"/></filter><linearGradient id="d" x1="-226.24" y1="255.437" x2="413.72" y2="923.389" gradientTransform="translate(0 595.89) scale(1 -1)" gradientUnits="userSpaceOnUse"><stop offset="0" stop-color="#de8f73"/><stop offset=".052" stop-color="#e19a81"/><stop offset=".152" stop-color="#eabaa9"/><stop offset=".289" stop-color="#f9ece8"/><stop offset=".335" stop-color="#fff"/><stop offset=".469" stop-color="#f2d5cb"/><stop offset=".575" stop-color="#eabaaa"/><stop offset=".632" stop-color="#e7b09e"/><stop offset=".642" stop-color="#e6ae9b"/><stop offset=".881" stop-color="#d18f6d"/><stop offset="1" stop-color="#c9845c"/></linearGradient><linearGradient id="e" x1="-225.535" y1="254.761" x2="414.425" y2="922.714" xlink:href="#d"/><linearGradient id="f" x1="-212.014" y1="241.807" x2="427.946" y2="909.759" xlink:href="#d"/><linearGradient id="g" x1="-217.067" y1="246.649" x2="422.893" y2="914.601" xlink:href="#d"/><linearGradient id="h" x1="-216.744" y1="246.339" x2="423.216" y2="914.291" xlink:href="#d"/><linearGradient id="i" x1="-161.275" y1="193.195" x2="478.685" y2="861.147" xlink:href="#d"/><linearGradient id="j" x1="-166.841" y1="198.528" x2="473.119" y2="866.48" xlink:href="#d"/><linearGradient id="k" x1="-197.083" y1="227.501" x2="442.878" y2="895.453" xlink:href="#d"/><linearGradient id="l" x1="-202.648" y1="232.834" x2="437.312" y2="900.786" xlink:href="#d"/><linearGradient id="m" x1="-186.491" y1="217.353" x2="453.469" y2="885.306" xlink:href="#d"/><linearGradient id="n" x1="-158.198" y1="190.246" x2="481.762" y2="858.198" xlink:href="#d"/><linearGradient id="o" x1="-163.986" y1="195.792" x2="475.974" y2="863.744" xlink:href="#d"/><linearGradient id="p" x1="-195.439" y1="225.927" x2="444.521" y2="893.879" xlink:href="#d"/><linearGradient id="q" x1="-201.227" y1="231.472" x2="438.733" y2="899.425" xlink:href="#d"/><linearGradient id="r" x1="-184.423" y1="215.372" x2="455.537" y2="883.325" xlink:href="#d"/><linearGradient id="s" x1="-250.196" y1="278.388" x2="389.764" y2="946.341" xlink:href="#d"/><linearGradient id="t" x1="-250.026" y1="278.226" x2="389.934" y2="946.178" xlink:href="#d"/><linearGradient id="u" x1="38.659" y1="1.639" x2="678.62" y2="669.591" xlink:href="#d"/><linearGradient id="v" x1="21.32" y1="18.251" x2="661.28" y2="686.203" xlink:href="#d"/><linearGradient id="w" x1="29.562" y1="10.355" x2="669.522" y2="678.307" xlink:href="#d"/><linearGradient id="x" x1="38.823" y1="1.481" x2="678.783" y2="669.434" xlink:href="#d"/><linearGradient id="y" x1="20.69" y1="18.854" x2="660.65" y2="686.806" xlink:href="#d"/><linearGradient id="z" x1="110.898" y1="-67.573" x2="750.858" y2="600.38" xlink:href="#d"/><linearGradient id="aa" x1="105.323" y1="-62.231" x2="745.283" y2="605.721" xlink:href="#d"/><linearGradient id="ab" x1="75.031" y1="-33.208" x2="714.991" y2="634.744" xlink:href="#d"/><linearGradient id="ac" x1="69.456" y1="-27.867" x2="709.416" y2="640.085" xlink:href="#d"/><linearGradient id="ad" x1="85.64" y1="-43.373" x2="725.6" y2="624.579" xlink:href="#d"/><linearGradient id="ae" x1="-53.682" y1="90.11" x2="586.278" y2="758.062" xlink:href="#d"/><linearGradient id="af" x1="-47.863" y1="84.536" x2="592.097" y2="752.488" xlink:href="#d"/><linearGradient id="ag" x1="-16.245" y1="54.244" x2="623.715" y2="722.197" xlink:href="#d"/><linearGradient id="ah" x1="-10.427" y1="48.669" x2="629.533" y2="716.621" xlink:href="#d"/><linearGradient id="ai" x1="-27.32" y1="64.853" x2="612.64" y2="732.805" xlink:href="#d"/><linearGradient id="aj" x1="36.149" y1="4.044" x2="676.11" y2="671.996" xlink:href="#d"/><linearGradient id="ak" x1="25.034" y1="14.693" x2="664.994" y2="682.646" xlink:href="#d"/><linearGradient id="al" x1="276.255" y1="-226" x2="916.215" y2="441.952" xlink:href="#d"/><linearGradient id="am" x1="275.55" y1="-225.325" x2="915.51" y2="442.627" xlink:href="#d"/><linearGradient id="an" x1="262.029" y1="-212.37" x2="901.989" y2="455.582" xlink:href="#d"/><linearGradient id="ao" x1="267.082" y1="-217.212" x2="907.042" y2="450.741" xlink:href="#d"/><linearGradient id="ap" x1="266.759" y1="-216.902" x2="906.719" y2="451.05" xlink:href="#d"/><linearGradient id="aq" x1="211.29" y1="-163.758" x2="851.25" y2="504.194" xlink:href="#d"/><linearGradient id="ar" x1="216.856" y1="-169.091" x2="856.816" y2="498.862" xlink:href="#d"/><linearGradient id="as" x1="247.097" y1="-198.064" x2="887.057" y2="469.888" xlink:href="#d"/><linearGradient id="at" x1="252.663" y1="-203.397" x2="892.623" y2="464.556" xlink:href="#d"/><linearGradient id="au" x1="236.506" y1="-187.917" x2="876.466" y2="480.035" xlink:href="#d"/><linearGradient id="av" x1="208.213" y1="-160.809" x2="848.173" y2="507.143" xlink:href="#d"/><linearGradient id="aw" x1="214.001" y1="-166.355" x2="853.961" y2="501.597" xlink:href="#d"/><linearGradient id="ax" x1="245.454" y1="-196.49" x2="885.414" y2="471.463" xlink:href="#d"/><linearGradient id="ay" x1="251.242" y1="-202.035" x2="891.202" y2="465.917" xlink:href="#d"/><linearGradient id="az" x1="234.439" y1="-185.935" x2="874.399" y2="482.017" xlink:href="#d"/><linearGradient id="ba" x1="300.211" y1="-248.952" x2="940.171" y2="419" xlink:href="#d"/><linearGradient id="bb" x1="300.041" y1="-248.789" x2="940.001" y2="419.164" xlink:href="#d"/><linearGradient id="bc" x1="11.356" y1="27.798" x2="651.316" y2="695.75" xlink:href="#d"/><linearGradient id="bd" x1="28.695" y1="11.185" x2="668.655" y2="679.138" xlink:href="#d"/><linearGradient id="be" x1="20.453" y1="19.082" x2="660.413" y2="687.034" xlink:href="#d"/><linearGradient id="bf" x1="11.192" y1="27.955" x2="651.152" y2="695.907" xlink:href="#d"/><linearGradient id="bg" x1="29.325" y1="10.583" x2="669.285" y2="678.535" xlink:href="#d"/><linearGradient id="bh" x1="-60.883" y1="97.009" x2="579.077" y2="764.961" xlink:href="#d"/><linearGradient id="bi" x1="-55.308" y1="91.668" x2="584.652" y2="759.62" xlink:href="#d"/><linearGradient id="bj" x1="-25.016" y1="62.645" x2="614.944" y2="730.598" xlink:href="#d"/><linearGradient id="bk" x1="-19.44" y1="57.305" x2="620.52" y2="725.257" xlink:href="#d"/><linearGradient id="bl" x1="-35.625" y1="72.81" x2="604.335" y2="740.763" xlink:href="#d"/><linearGradient id="bm" x1="103.697" y1="-60.674" x2="743.657" y2="607.279" xlink:href="#d"/><linearGradient id="bn" x1="97.879" y1="-55.098" x2="737.839" y2="612.854" xlink:href="#d"/><linearGradient id="bo" x1="66.261" y1="-24.806" x2="706.221" y2="643.146" xlink:href="#d"/><linearGradient id="bp" x1="60.442" y1="-19.232" x2="700.402" y2="648.721" xlink:href="#d"/><linearGradient id="bq" x1="77.334" y1="-35.416" x2="717.294" y2="632.536" xlink:href="#d"/><linearGradient id="br" x1="13.866" y1="25.393" x2="653.826" y2="693.346" xlink:href="#d"/><linearGradient id="bs" x1="24.982" y1="14.744" x2="664.942" y2="682.696" xlink:href="#d"/><linearGradient id="bt" x1="229.848" y1="516.899" x2="346.846" y2="625.897" xlink:href="#d"/><linearGradient id="bu" x1="264.854" y1="479.324" x2="381.852" y2="588.322" xlink:href="#d"/><linearGradient id="bv" x1="249.319" y1="495.999" x2="366.317" y2="604.996" xlink:href="#d"/><linearGradient id="bw" x1="255.536" y1="489.326" x2="372.534" y2="598.324" xlink:href="#d"/></defs><g filter="url(#b)"><path d="M17.633,59.297c1.666-1.674,3.636-3.058,5.844-4.071l.563-.259c4.295-2.121,10.754-3.598,17.238-3.934,16.988-.762,22.082-11.831,22.132-11.942.024-.055.052-.108.082-.159,2.324-3.875,1.055-8.953-2.829-11.318-2.941-1.79-6.781-.875-8.57,2.044-.652,1.068-.801,2.475-.399,3.763.597,1.909,1.841,3.112,3.414,3.301,1.352.162,2.681-.488,3.378-1.651.414-.689,1.301-.908,1.986-.495.684.414.905,1.305.494,1.992-1.289,2.141-3.718,3.334-6.201,3.037-2.713-.325-4.893-2.313-5.831-5.315-.65-2.077-.39-4.375.694-6.149,2.618-4.273,8.238-5.625,12.536-3.008,5.219,3.178,6.935,9.991,3.849,15.225-.576,1.225-6.46,12.762-24.596,13.575-6.013.311-12.2,1.712-16.138,3.656l-.599.276c-5.304,2.437-9,7.385-9.884,13.239-.841,5.577,1.02,10.878,5.108,14.544.319.286.652.564.995.831,3.079,2.397,7.005,3.301,11.055,2.544,5.785-1.08,9.756-4.417,10.894-9.154,1.028-4.278-.564-8.79-4.054-11.495-1.793-1.389-4.17-1.947-6.517-1.531-3.546.627-5.98,2.619-6.674,5.461-.625,2.548.318,5.237,2.403,6.85,1.063.823,2.378,1.18,3.702,1.008,1.306-.17,2.471-.835,3.264-1.884.507-.644,1.396-.755,2.029-.267.633.489.752,1.4.266,2.036-1.27,1.661-3.112,2.724-5.187,2.995-2.091.273-4.165-.292-5.842-1.588-2.991-2.315-4.343-6.179-3.445-9.843.969-3.953,4.325-6.803,8.981-7.627,3.148-.558,6.351.205,8.788,2.092,4.394,3.403,6.395,9.085,5.099,14.474-1.395,5.813-6.321,10.048-13.177,11.328-4.873.91-9.617-.193-13.359-3.105-.397-.31-.78-.63-1.148-.96-4.828-4.331-7.03-10.579-6.04-17.143.662-4.394,2.686-8.351,5.697-11.373l-.002-.002Z" fill="url(#d)"/><path d="M59.984,16.796c3.011-3.022,6.955-5.052,11.332-5.717,6.54-.993,12.766,1.216,17.082,6.062.33.37.649.754.957,1.151,2.903,3.756,4.002,8.517,3.096,13.407-1.276,6.878-5.495,11.822-11.288,13.223-5.37,1.3-11.031-.708-14.422-5.117-1.881-2.446-2.641-5.66-2.085-8.819.821-4.671,3.663-8.041,7.6-9.013,3.652-.901,7.502.456,9.808,3.458,1.292,1.682,1.854,3.764,1.583,5.863-.27,2.081-1.328,3.928-2.985,5.206-.633.487-1.542.369-2.029-.267s-.378-1.54.266-2.036c1.045-.796,1.708-1.965,1.877-3.277.172-1.328-.184-2.649-1.004-3.715-1.607-2.092-4.287-3.039-6.826-2.411-2.834.699-4.817,3.141-5.442,6.698-.414,2.356.142,4.741,1.526,6.541,2.695,3.503,7.191,5.1,11.454,4.069,4.723-1.142,8.046-5.129,9.123-10.933.754-4.065-.147-8.004-2.537-11.096-.265-.344-.542-.677-.827-.997-3.653-4.102-8.935-5.969-14.493-5.125-5.833.886-10.762,4.595-13.192,9.919l-.258.565c-1.955,3.989-3.351,10.199-3.661,16.242-.811,18.189-12.305,24.097-13.528,24.674-5.214,3.097-12.005,1.375-15.171-3.864-2.607-4.314-1.257-9.961,2.997-12.58,1.766-1.088,4.057-1.348,6.127-.697,2.992.942,4.972,3.129,5.296,5.852.295,2.49-.892,4.933-3.026,6.223-.684.413-1.573.191-1.986-.495-.412-.686-.194-1.576.494-1.992,1.157-.698,1.806-2.032,1.645-3.39-.188-1.578-1.387-2.827-3.29-3.426-1.283-.404-2.685-.255-3.749.401-2.912,1.791-3.82,5.648-2.037,8.6,2.356,3.898,7.415,5.172,11.277,2.84.051-.03.103-.059.158-.082.45-.205,11.146-5.259,11.9-22.201.335-6.518,1.807-12.999,3.938-17.347l.24-.527c1.01-2.216,2.391-4.193,4.057-5.865v-.002Z" fill="url(#e)"/><path d="M55.928,55.227c.418-.419,1.048-.542,1.592-.308.458.196,11.259,4.887,16.463,11.579,2.488,3.198,2.142,6.095.696,7.545-1.447,1.452-4.333,1.799-7.52-.697-6.668-5.224-11.343-16.063-11.539-16.521-.233-.545-.111-1.179.307-1.597h0ZM72.634,71.992c.545-.548.401-1.997-.93-3.708h0c-2.942-3.783-8.074-6.964-11.581-8.85,1.881,3.521,5.054,8.676,8.818,11.624,1.706,1.335,3.15,1.48,3.694.933h0ZM72.843,67.39l-.012.012.012-.012Z" fill="url(#f)"/><path d="M50.639,62.379c.267-.268.633-.425,1.02-.425.492,0,.953.25,1.219.667.326.509,3.166,5.085,2.438,8.861h0c-.346,1.801-1.792,3.014-3.597,3.021-1.793.007-3.295-1.239-3.653-3.028-.757-3.783,2.052-8.344,2.375-8.851.057-.09.124-.172.197-.245ZM53.898,71.206l-1.42-.276c.249-1.292-.224-2.958-.806-4.35-.569,1.388-1.025,3.041-.768,4.324.126.63.607.697.808.696.237,0,.653-.087.767-.669l1.42.276h0Z" fill="url(#g)"/><path d="M63.055,49.919c.073-.073.154-.14.244-.197.506-.324,5.05-3.144,8.819-2.384,1.783.359,3.024,1.867,3.017,3.666-.007,1.811-1.216,3.261-3.011,3.609h0c-3.763.73-8.322-2.12-8.83-2.447-.415-.267-.665-.729-.664-1.223,0-.389.156-.756.424-1.024ZM72.037,51.539c.172-.172.207-.394.207-.544,0-.202-.066-.683-.694-.811-1.284-.259-2.93.198-4.309.767,1.392.585,3.053,1.062,4.335.813.213-.042.361-.125.46-.225h0Z" fill="url(#h)"/><polygon points="30.696 196.568 36.214 190.996 41.732 196.568 36.214 202.138 30.696 196.568" fill="url(#i)"/><polygon points="30.696 185.426 36.214 179.855 41.732 185.426 36.214 190.997 30.696 185.426" fill="url(#j)"/><polygon points="30.696 124.888 36.214 119.317 41.732 124.888 36.214 130.459 30.696 124.888" fill="url(#k)"/><polygon points="30.696 113.746 36.214 108.176 41.732 113.746 36.214 119.318 30.696 113.746" fill="url(#l)"/><path d="M36.214,77.864c-.764,0-1.382.621-1.382,1.387v133.678c0,.765.619,1.387,1.382,1.387s1.382-.621,1.382-1.387V79.251c0-.766-.619-1.387-1.382-1.387Z" fill="url(#m)"/><polygon points="196.443 41.028 190.892 35.491 196.443 29.953 201.994 35.491 196.443 41.028" fill="url(#n)"/><polygon points="185.342 41.028 179.79 35.491 185.342 29.953 190.893 35.491 185.342 41.028" fill="url(#o)"/><polygon points="125.017 41.028 119.466 35.491 125.017 29.953 130.568 35.491 125.017 41.028" fill="url(#p)"/><polygon points="113.915 41.028 108.364 35.491 113.915 29.953 119.467 35.491 113.915 41.028" fill="url(#q)"/><path d="M212.747,34.104H79.541c-.764,0-1.382.621-1.382,1.387s.619,1.387,1.382,1.387h133.206c.764,0,1.382-.621,1.382-1.387s-.619-1.387-1.382-1.387Z" fill="url(#r)"/><path d="M22.002,45.846c-1.653-1.659-2.719-3.845-2.979-6.241l-.032-.29c-.319-2.336-.013-5.59.825-8.663,1.694-6.04-.64-9.528-1.504-10.559.519,1.05.546,2.304.032,3.394-.699,1.483-2.203,2.347-4.022,2.315-1.267-.021-2.51-.623-3.28-1.542-1.818-2.176-1.54-5.45.619-7.3,1.239-1.062,2.815-1.577,4.435-1.452,1.597.123,3.056.864,4.101,2.059.65.627,4.997,5.363,2.599,13.914-.72,2.639-1.004,5.497-.737,7.451l.037.332c.269,2.474,1.759,4.627,3.985,5.76,2.083,1.062,4.404,1.019,6.37-.116.165-.095.32-.192.474-.295,1.307-.88,2.155-2.296,2.385-3.983.327-2.421-.433-4.398-2.078-5.426-1.458-.908-3.32-.87-4.749.098-.681.462-1.145,1.231-1.273,2.109-.196,1.339.193,2.422,1.055,2.965.748.471,1.708.453,2.444-.046.678-.461.86-1.387.406-2.063-.478-.71-.29-1.675.419-2.154s1.67-.292,2.148.42c1.405,2.094.85,4.951-1.239,6.369-1.751,1.189-4.036,1.231-5.82.106-1.928-1.216-2.847-3.471-2.473-6.043.253-1.74,1.202-3.284,2.603-4.233,2.438-1.653,5.623-1.716,8.113-.163,2.696,1.683,4.005,4.851,3.511,8.483-.344,2.539-1.705,4.779-3.732,6.146-.222.148-.436.283-.654.408-2.883,1.664-6.277,1.735-9.309.189-1.007-.513-1.907-1.174-2.679-1.948h0ZM16.606,18.758c-.237-.081-.487-.133-.744-.153-.799-.062-1.577.193-2.189.718-.873.747-.988,2.068-.257,2.944.208.251.584.424.963.431.586.011,1.002-.18,1.17-.537.131-.28.089-.61-.108-.842-.554-.653-.477-1.633.174-2.189.288-.246.641-.368.991-.371h0Z" fill="url(#s)"/><path d="M17.723,19.471c-1.022-1.026-1.639-2.369-1.752-3.834-.125-1.626.389-3.208,1.447-4.452,1.844-2.166,5.106-2.444,7.274-.621.942.785,1.514,2.021,1.535,3.292.033,1.826-.829,3.334-2.306,4.036-1.087.516-2.337.488-3.384-.033,1.013.855,4.489,3.214,10.513,1.513,3.072-.845,6.314-1.152,8.682-.826l.248.026c3.503.382,6.554,2.503,8.161,5.679,1.54,3.043,1.47,6.45-.192,9.348-.123.215-.257.43-.398.643-1.369,2.042-3.6,3.407-6.13,3.753-3.62.496-6.777-.817-8.453-3.523-1.547-2.499-1.484-5.696.163-8.143.946-1.406,2.484-2.357,4.217-2.612,2.564-.375,4.809.55,6.022,2.482,1.121,1.792,1.079,4.084-.105,5.841-1.413,2.097-4.261,2.655-6.347,1.245-.708-.479-.897-1.444-.419-2.155s1.439-.9,2.147-.42c.674.456,1.596.272,2.057-.408.497-.739.515-1.701.046-2.452-.543-.864-1.62-1.255-2.955-1.059-.875.128-1.641.594-2.101,1.277-.964,1.433-1.003,3.305-.098,4.766,1.028,1.653,2.995,2.415,5.406,2.085,1.68-.23,3.091-1.082,3.974-2.402.097-.147.196-.303.287-.463,1.134-1.977,1.177-4.307.119-6.397-1.132-2.236-3.276-3.73-5.737-3.998l-.29-.031c-1.989-.274-4.838.012-7.478.737-8.509,2.403-13.223-1.939-13.854-2.613-.103-.092-.203-.184-.3-.282h0ZM22.769,13.004c-.02-.02-.042-.04-.065-.06-.873-.735-2.189-.619-2.933.258-.522.614-.776,1.394-.714,2.197.019.257.071.508.153.747.003-.352.124-.705.369-.994.554-.653,1.532-.731,2.181-.175.231.198.56.24.839.108.356-.168.545-.586.535-1.174-.006-.347-.143-.686-.364-.908h0Z" fill="url(#t)"/><path d="M576.603,59.382c-1.675-1.676-3.654-3.064-5.875-4.078l-.566-.259c-4.318-2.125-10.81-3.604-17.329-3.941-17.077-.763-22.197-11.851-22.248-11.962-.024-.055-.052-.108-.083-.159-2.336-3.882-1.061-8.967,2.844-11.337,2.957-1.792,6.817-.875,8.615,2.047.655,1.069.805,2.479.401,3.768-.599,1.912-1.85,3.118-3.431,3.307-1.36.163-2.696-.489-3.396-1.653-.417-.69-1.308-.909-1.996-.496-.687.414-.91,1.307-.496,1.996,1.295,2.145,3.737,3.34,6.234,3.041,2.727-.326,4.918-2.317,5.862-5.324.653-2.081.392-4.383-.698-6.158-2.631-4.28-8.282-5.635-12.601-3.014-5.246,3.182-6.972,10.009-3.87,15.251.579,1.227,6.494,12.783,24.725,13.597,6.043.312,12.264,1.715,16.222,3.663l.603.276c5.332,2.441,9.047,7.398,9.936,13.262.845,5.586-1.026,10.897-5.134,14.569-.321.287-.654.565-1,.833-3.096,2.402-7.041,3.307-11.113,2.548-5.816-1.082-9.807-4.425-10.951-9.17-1.034-4.286.567-8.805,4.075-11.514,1.803-1.391,4.191-1.95,6.552-1.534,3.566.628,6.012,2.624,6.709,5.471.628,2.552-.319,5.246-2.415,6.862-1.069.824-2.391,1.182-3.722,1.01-1.313-.171-2.485-.837-3.282-1.887-.51-.645-1.403-.757-2.04-.267-.637.489-.757,1.403-.267,2.04,1.277,1.664,3.128,2.728,5.214,3,2.101.273,4.187-.292,5.873-1.591,3.007-2.319,4.366-6.188,3.463-9.859-.974-3.959-4.348-6.815-9.028-7.64-3.164-.559-6.384.206-8.834,2.096-4.417,3.409-6.428,9.099-5.126,14.498,1.403,5.822,6.354,10.065,13.246,11.347,4.899.911,9.668-.193,13.429-3.111.399-.311.784-.631,1.154-.962,4.853-4.338,7.067-10.597,6.071-17.172-.666-4.401-2.701-8.366-5.727-11.392h0Z" fill="url(#u)"/><path d="M534.029,16.808c-3.026-3.027-6.991-5.061-11.392-5.727-6.574-.995-12.834,1.218-17.172,6.071-.331.371-.652.755-.961,1.153-2.919,3.763-4.023,8.532-3.112,13.43,1.283,6.89,5.524,11.843,11.347,13.246,5.399,1.302,11.089-.709,14.497-5.125,1.891-2.45,2.654-5.67,2.096-8.834-.825-4.679-3.681-8.054-7.64-9.028-3.67-.903-7.541.457-9.859,3.463-1.299,1.685-1.864,3.77-1.591,5.873.271,2.085,1.335,3.934,3,5.214.637.488,1.549.37,2.04-.267.489-.637.38-1.542-.267-2.04-1.051-.797-1.717-1.969-1.888-3.282-.173-1.331.185-2.653,1.01-3.721,1.616-2.096,4.31-3.043,6.862-2.415,2.848.7,4.842,3.146,5.471,6.709.416,2.361-.143,4.749-1.535,6.552-2.709,3.509-7.229,5.109-11.513,4.076-4.747-1.144-8.089-5.138-9.17-10.952-.758-4.071.148-8.017,2.549-11.114.267-.345.545-.678.832-.999,3.673-4.109,8.983-5.98,14.569-5.134,5.863.888,10.819,4.602,13.262,9.936l.259.566c1.965,3.996,3.369,10.216,3.68,16.269.815,18.22,12.37,24.138,13.598,24.715,5.241,3.102,12.068,1.376,15.25-3.87,2.621-4.32,1.263-9.978-3.013-12.601-1.776-1.09-4.078-1.351-6.159-.698-3.008.944-4.998,3.134-5.324,5.862-.297,2.495.897,4.942,3.042,6.234.688.414,1.581.191,1.996-.496.414-.687.195-1.579-.496-1.996-1.163-.699-1.815-2.035-1.653-3.396.189-1.581,1.394-2.832,3.307-3.431,1.29-.405,2.699-.255,3.769.402,2.928,1.793,3.841,5.657,2.047,8.615-2.369,3.903-7.454,5.18-11.336,2.845-.051-.03-.104-.059-.159-.083-.453-.205-11.205-5.267-11.962-22.238-.336-6.529-1.817-13.021-3.958-17.376l-.241-.528c-1.015-2.22-2.403-4.2-4.078-5.875v-.005Z" fill="url(#v)"/><path d="M538.415,56.905c-.196.459-4.896,11.317-11.598,16.549-3.204,2.501-6.105,2.153-7.559.698-1.454-1.454-1.802-4.355.7-7.558,5.232-6.704,16.09-11.402,16.549-11.598.546-.235,1.181-.112,1.6.309s.542,1.054.309,1.6h-.001ZM525.027,71.163c3.783-2.954,6.973-8.117,8.864-11.644-3.526,1.889-8.684,5.076-11.642,8.865h0c-1.338,1.714-1.483,3.165-.934,3.714.548.547,2,.403,3.713-.934h0ZM521.114,67.499l-.012-.012.012.012Z" fill="url(#w)"/><path d="M543.62,62.714c.324.509,3.149,5.076,2.388,8.866-.36,1.792-1.87,3.04-3.673,3.034-1.815-.007-3.268-1.222-3.616-3.026h0c-.732-3.783,2.124-8.366,2.452-8.876.267-.417.73-.669,1.226-.668.389,0,.757.156,1.026.426.073.073.14.155.198.245h-.001ZM541.575,71.034c.114.583.532.671.771.671.202,0,.685-.066.812-.697.258-1.285-.202-2.941-.772-4.331-.586,1.396-1.061,3.064-.811,4.358l-1.428.276,1.428-.276h0Z" fill="url(#x)"/><path d="M531.367,51.014c0,.495-.25.958-.668,1.226-.51.328-5.094,3.182-8.876,2.452h0c-1.804-.349-3.02-1.802-3.026-3.616-.007-1.803,1.241-3.313,3.033-3.673,3.79-.761,8.357,2.064,8.866,2.388.09.057.172.124.245.198.268.269.426.636.426,1.026h0ZM522.376,51.836c1.29.249,2.958-.228,4.358-.814-1.386-.57-3.041-1.028-4.331-.769-.631.127-.699.61-.697.812,0,.151.035.374.208.545.1.1.248.183.463.225h-.001Z" fill="url(#y)"/><polygon points="563.471 196.883 557.924 191.303 552.377 196.883 557.924 202.463 563.471 196.883" fill="url(#z)"/><polygon points="563.471 185.723 557.924 180.143 552.377 185.723 557.924 191.304 563.471 185.723" fill="url(#aa)"/><polygon points="563.471 125.083 557.924 119.502 552.377 125.083 557.924 130.663 563.471 125.083" fill="url(#ab)"/><polygon points="563.471 113.923 557.924 108.343 552.377 113.923 557.924 119.503 563.471 113.923" fill="url(#ac)"/><path d="M557.924,77.98c.767,0,1.389.622,1.389,1.389v133.904c0,.767-.622,1.389-1.389,1.389s-1.389-.622-1.389-1.389V79.369c0-.767.622-1.389,1.389-1.389Z" fill="url(#ad)"/><polygon points="396.856 41.082 402.436 35.535 396.856 29.988 391.275 35.535 396.856 41.082" fill="url(#ae)"/><polygon points="408.015 41.082 413.596 35.535 408.015 29.988 402.435 35.535 408.015 41.082" fill="url(#af)"/><polygon points="468.656 41.082 474.236 35.535 468.656 29.988 463.076 35.535 468.656 41.082" fill="url(#ag)"/><polygon points="479.816 41.082 485.396 35.535 479.816 29.988 474.235 35.535 479.816 41.082" fill="url(#ah)"/><path d="M380.466,34.145h133.904c.767,0,1.389.622,1.389,1.389s-.622,1.389-1.389,1.389h-133.904c-.767,0-1.389-.622-1.389-1.389s.622-1.389,1.389-1.389h0Z" fill="url(#ai)"/><path d="M569.517,47.858c-3.047,1.548-6.46,1.478-9.358-.189-.219-.125-.435-.261-.658-.408-2.038-1.37-3.405-3.614-3.751-6.156-.497-3.637.819-6.811,3.529-8.497,2.504-1.555,5.706-1.492,8.155.164,1.408.951,2.362,2.497,2.617,4.24.375,2.577-.548,4.836-2.486,6.054-1.794,1.126-4.091,1.085-5.851-.106-2.101-1.42-2.659-4.283-1.246-6.379.48-.712,1.446-.902,2.158-.421s.901,1.447.421,2.158c-.457.678-.273,1.604.408,2.067.74.5,1.705.518,2.457.046.867-.544,1.258-1.629,1.061-2.97-.128-.88-.595-1.65-1.28-2.113-1.435-.97-3.309-1.009-4.774-.098-1.653,1.029-2.418,3.01-2.089,5.434.231,1.689,1.084,3.107,2.398,3.989.154.103.311.201.476.295,1.975,1.138,4.31,1.18,6.402.117,2.237-1.134,3.734-3.291,4.005-5.769l.037-.332c.268-1.957-.017-4.819-.741-7.463-2.41-8.566,1.959-13.309,2.613-13.937,1.051-1.198,2.517-1.939,4.124-2.063,1.629-.125,3.213.391,4.459,1.454,2.169,1.853,2.449,5.133.622,7.312-.774.92-2.024,1.522-3.297,1.543-1.829.033-3.341-.834-4.043-2.319-.516-1.092-.489-2.347.033-3.4-.869,1.033-3.214,4.526-1.512,10.576.843,3.078,1.151,6.338.829,8.678l-.032.29c-.261,2.401-1.332,4.59-2.994,6.252-.775.775-1.681,1.437-2.693,1.951h.005ZM578.632,19.146c.654.558.732,1.54.175,2.193-.198.232-.24.563-.108.844.169.357.587.548,1.176.538.382-.007.759-.18.969-.431.736-.877.62-2.201-.258-2.949-.616-.525-1.397-.781-2.201-.719-.259.02-.51.072-.749.153.352.003.707.125.996.372Z" fill="url(#aj)"/><path d="M576.211,19.771c-.635.675-5.374,5.024-13.928,2.617-2.653-.727-5.516-1.013-7.516-.738l-.291.031c-2.474.268-4.629,1.764-5.768,4.005-1.063,2.095-1.021,4.428.12,6.408.092.16.19.317.288.464.888,1.321,2.306,2.175,3.995,2.405,2.425.33,4.402-.433,5.435-2.089.909-1.464.871-3.339-.098-4.774-.463-.684-1.233-1.151-2.112-1.279-1.343-.196-2.425.196-2.97,1.061-.472.752-.454,1.715.046,2.456.463.681,1.39.866,2.068.409.712-.48,1.678-.292,2.158.421.48.712.292,1.68-.421,2.158-2.097,1.413-4.959.854-6.38-1.247-1.191-1.76-1.233-4.057-.105-5.851,1.22-1.934,3.477-2.861,6.054-2.486,1.743.255,3.289,1.208,4.239,2.616,1.656,2.451,1.72,5.652.164,8.156-1.683,2.71-4.858,4.026-8.497,3.529-2.543-.346-4.787-1.713-6.162-3.759-.141-.214-.276-.43-.4-.645-1.671-2.903-1.74-6.316-.193-9.364,1.616-3.18,4.682-5.304,8.204-5.688l.249-.026c2.38-.326,5.64-.017,8.728.828,6.056,1.705,9.55-.658,10.568-1.515-1.052.522-2.309.55-3.402.033-1.485-.703-2.351-2.213-2.318-4.042.021-1.273.596-2.512,1.543-3.298,2.179-1.827,5.459-1.547,7.312.622,1.063,1.246,1.58,2.83,1.454,4.458-.113,1.467-.734,2.813-1.761,3.84-.098.097-.198.191-.302.283v.002ZM571.074,13.92c-.011.589.18,1.007.538,1.176.28.132.611.089.844-.109.653-.557,1.636-.48,2.193.175.246.29.368.643.371.995.083-.239.135-.49.154-.748.062-.804-.193-1.585-.718-2.201-.748-.877-2.071-.993-2.949-.258-.023.02-.044.04-.065.06-.222.222-.36.561-.366.909h-.002Z" fill="url(#ak)"/><path d="M576.643,534.979c-1.666,1.674-3.636,3.058-5.844,4.071l-.563.259c-4.295,2.121-10.754,3.598-17.238,3.934-16.988.762-22.082,11.831-22.132,11.942-.024.055-.052.108-.082.159-2.324,3.875-1.055,8.953,2.829,11.318,2.941,1.79,6.781.875,8.57-2.044.652-1.068.801-2.475.399-3.763-.597-1.909-1.841-3.112-3.414-3.301-1.352-.162-2.681.488-3.378,1.651-.414.689-1.301.908-1.986.495-.684-.414-.905-1.305-.494-1.992,1.289-2.141,3.718-3.334,6.201-3.037,2.713.325,4.893,2.313,5.831,5.315.65,2.077.39,4.375-.694,6.149-2.618,4.273-8.238,5.625-12.536,3.008-5.219-3.178-6.935-9.991-3.849-15.225.576-1.225,6.46-12.762,24.596-13.575,6.013-.311,12.2-1.712,16.138-3.656l.599-.276c5.304-2.437,9-7.385,9.884-13.239.841-5.577-1.02-10.878-5.108-14.544-.319-.286-.652-.564-.995-.831-3.079-2.397-7.005-3.301-11.055-2.544-5.785,1.08-9.756,4.417-10.894,9.154-1.028,4.278.564,8.79,4.054,11.495,1.793,1.389,4.17,1.947,6.517,1.531,3.546-.627,5.98-2.619,6.674-5.461.624-2.548-.318-5.237-2.403-6.85-1.063-.823-2.378-1.181-3.702-1.008-1.306.17-2.471.835-3.264,1.884-.507.644-1.396.755-2.029.267-.633-.489-.752-1.4-.266-2.036,1.27-1.661,3.112-2.724,5.187-2.995,2.091-.273,4.165.292,5.842,1.588,2.991,2.315,4.343,6.179,3.445,9.843-.969,3.953-4.325,6.803-8.981,7.627-3.148.558-6.351-.205-8.788-2.092-4.394-3.403-6.395-9.085-5.099-14.474,1.395-5.813,6.321-10.048,13.177-11.328,4.873-.91,9.617.193,13.359,3.105.397.31.78.63,1.148.96,4.828,4.331,7.03,10.579,6.04,17.143-.662,4.394-2.686,8.351-5.697,11.373l.002.002Z" fill="url(#al)"/><path d="M534.292,577.48c-3.011,3.022-6.955,5.052-11.332,5.717-6.54.993-12.766-1.216-17.082-6.062-.33-.37-.649-.754-.957-1.151-2.903-3.756-4.002-8.517-3.096-13.407,1.276-6.878,5.495-11.822,11.288-13.223,5.37-1.3,11.031.709,14.422,5.117,1.881,2.446,2.641,5.66,2.085,8.82-.821,4.671-3.663,8.041-7.6,9.013-3.652.901-7.502-.456-9.808-3.457-1.292-1.682-1.854-3.764-1.583-5.863.27-2.081,1.328-3.928,2.985-5.206.633-.487,1.541-.369,2.029.267s.378,1.54-.266,2.036c-1.045.796-1.708,1.965-1.877,3.277-.172,1.328.184,2.649,1.004,3.715,1.607,2.092,4.287,3.039,6.826,2.411,2.834-.699,4.817-3.141,5.442-6.698.414-2.356-.142-4.741-1.526-6.541-2.695-3.503-7.191-5.1-11.454-4.069-4.723,1.142-8.046,5.129-9.123,10.933-.754,4.065.147,8.004,2.537,11.096.265.344.542.677.827.997,3.653,4.102,8.935,5.969,14.493,5.125,5.833-.886,10.762-4.595,13.192-9.919l.258-.565c1.955-3.989,3.351-10.199,3.661-16.242.811-18.189,12.305-24.097,13.528-24.674,5.214-3.097,12.005-1.375,15.171,3.864,2.607,4.314,1.257,9.961-2.997,12.58-1.766,1.088-4.057,1.348-6.127.697-2.992-.942-4.972-3.129-5.296-5.852-.295-2.49.892-4.933,3.026-6.223.684-.413,1.573-.191,1.986.495s.194,1.576-.494,1.992c-1.157.698-1.806,2.032-1.645,3.39.188,1.578,1.387,2.827,3.29,3.426,1.283.404,2.685.255,3.749-.401,2.912-1.791,3.82-5.648,2.037-8.6-2.356-3.898-7.415-5.172-11.277-2.84-.051.03-.103.059-.158.082-.45.205-11.146,5.259-11.9,22.201-.335,6.518-1.807,12.999-3.938,17.347l-.24.527c-1.01,2.216-2.391,4.193-4.057,5.865v.002Z" fill="url(#am)"/><path d="M538.348,539.049c-.418.419-1.048.541-1.592.308-.458-.196-11.259-4.887-16.463-11.579-2.488-3.198-2.142-6.095-.696-7.545,1.447-1.452,4.333-1.799,7.52.697,6.668,5.224,11.343,16.063,11.539,16.521.233.545.111,1.179-.307,1.598h-.001ZM521.642,522.284c-.545.548-.401,1.997.93,3.708h0c2.942,3.783,8.074,6.964,11.581,8.85-1.881-3.521-5.054-8.676-8.818-11.625-1.706-1.335-3.15-1.48-3.694-.933h.001ZM521.433,526.886l.012-.012-.012.012Z" fill="url(#an)"/><path d="M543.636,531.897c-.267.268-.633.425-1.02.425-.492,0-.953-.25-1.219-.667-.326-.509-3.166-5.085-2.438-8.861h0c.346-1.801,1.792-3.014,3.597-3.021,1.793-.007,3.295,1.239,3.653,3.028.757,3.783-2.052,8.344-2.375,8.851-.057.09-.124.172-.197.245h0ZM540.378,523.07l1.42.276c-.249,1.292.224,2.958.806,4.35.569-1.388,1.025-3.041.768-4.324-.126-.63-.607-.697-.808-.696-.237,0-.653.087-.767.669l-1.42-.276h0Z" fill="url(#ao)"/><path d="M531.221,544.357c-.073.073-.154.14-.244.197-.506.324-5.05,3.144-8.82,2.384-1.783-.359-3.024-1.867-3.017-3.666.007-1.811,1.216-3.261,3.011-3.609h0c3.763-.73,8.322,2.12,8.83,2.447.415.267.665.729.664,1.223,0,.389-.156.756-.424,1.024h0ZM522.239,542.737c-.172.172-.207.394-.207.544,0,.202.066.683.694.811,1.284.259,2.93-.198,4.309-.767-1.392-.585-3.053-1.062-4.335-.813-.213.042-.361.125-.46.225h0Z" fill="url(#ap)"/><polygon points="563.58 397.708 558.062 403.28 552.544 397.708 558.062 392.138 563.58 397.708" fill="url(#aq)"/><polygon points="563.58 408.85 558.062 414.421 552.544 408.85 558.062 403.279 563.58 408.85" fill="url(#ar)"/><polygon points="563.58 469.388 558.062 474.959 552.544 469.388 558.062 463.817 563.58 469.388" fill="url(#as)"/><polygon points="563.58 480.529 558.062 486.1 552.544 480.529 558.062 474.958 563.58 480.529" fill="url(#at)"/><path d="M558.062,516.412c.764,0,1.382-.621,1.382-1.387v-133.678c0-.765-.619-1.387-1.382-1.387s-1.382.621-1.382,1.387v133.678c0,.766.619,1.387,1.382,1.387Z" fill="url(#au)"/><polygon points="397.833 553.247 403.384 558.785 397.833 564.323 392.282 558.785 397.833 553.247" fill="url(#av)"/><polygon points="408.934 553.247 414.486 558.785 408.934 564.323 403.383 558.785 408.934 553.247" fill="url(#aw)"/><polygon points="469.259 553.247 474.81 558.785 469.259 564.323 463.708 558.785 469.259 553.247" fill="url(#ax)"/><polygon points="480.361 553.247 485.912 558.785 480.361 564.323 474.809 558.785 480.361 553.247" fill="url(#ay)"/><path d="M381.529,560.172h133.206c.764,0,1.382-.621,1.382-1.387s-.619-1.387-1.382-1.387h-133.206c-.763,0-1.382.621-1.382,1.387s.619,1.387,1.382,1.387h0Z" fill="url(#az)"/><path d="M572.274,548.43c1.653,1.659,2.719,3.845,2.979,6.241l.032.29c.319,2.336.013,5.59-.825,8.663-1.694,6.04.64,9.528,1.504,10.559-.519-1.05-.546-2.304-.032-3.394.699-1.483,2.203-2.347,4.022-2.315,1.267.021,2.51.623,3.28,1.541,1.818,2.176,1.54,5.45-.619,7.3-1.239,1.062-2.815,1.577-4.435,1.452-1.598-.123-3.056-.864-4.101-2.059-.65-.627-4.997-5.363-2.599-13.914.72-2.639,1.004-5.497.737-7.451l-.037-.332c-.269-2.474-1.759-4.627-3.985-5.76-2.083-1.062-4.404-1.019-6.37.116-.165.095-.32.192-.474.295-1.307.88-2.155,2.296-2.385,3.983-.327,2.421.433,4.398,2.078,5.426,1.458.908,3.32.87,4.749-.098.681-.462,1.145-1.231,1.273-2.109.196-1.339-.193-2.422-1.055-2.965-.748-.471-1.708-.453-2.444.046-.678.461-.86,1.387-.406,2.063.478.71.29,1.675-.419,2.154s-1.67.292-2.148-.42c-1.405-2.094-.85-4.951,1.239-6.369,1.751-1.189,4.036-1.231,5.82-.106,1.928,1.216,2.846,3.471,2.473,6.043-.253,1.74-1.202,3.284-2.603,4.233-2.438,1.653-5.623,1.716-8.113.163-2.696-1.683-4.005-4.851-3.511-8.483.344-2.539,1.705-4.779,3.732-6.146.222-.148.436-.283.654-.408,2.883-1.664,6.277-1.735,9.309-.189,1.007.513,1.907,1.174,2.679,1.948h0ZM577.67,575.518c.237.081.487.133.744.153.799.062,1.577-.193,2.189-.718.873-.747.988-2.068.257-2.944-.208-.251-.584-.424-.963-.43-.586-.011-1.002.18-1.17.537-.131.28-.089.61.108.842.554.653.477,1.633-.174,2.189-.288.246-.641.368-.991.371h0Z" fill="url(#ba)"/><path d="M576.553,574.805c1.022,1.026,1.639,2.369,1.752,3.834.125,1.626-.389,3.208-1.447,4.452-1.844,2.166-5.106,2.444-7.274.621-.942-.785-1.514-2.021-1.535-3.292-.033-1.826.829-3.334,2.306-4.036,1.087-.516,2.337-.488,3.384.033-1.013-.855-4.489-3.214-10.513-1.513-3.072.845-6.314,1.152-8.682.826l-.248-.026c-3.503-.382-6.554-2.503-8.161-5.679-1.54-3.043-1.47-6.45.192-9.348.123-.215.257-.43.398-.643,1.369-2.042,3.6-3.407,6.13-3.753,3.62-.496,6.777.817,8.453,3.523,1.547,2.499,1.484,5.696-.163,8.143-.946,1.406-2.484,2.357-4.217,2.612-2.564.375-4.809-.55-6.022-2.482-1.121-1.792-1.079-4.084.105-5.841,1.413-2.097,4.261-2.655,6.347-1.245.709.479.897,1.444.419,2.155s-1.439.9-2.147.42c-.674-.456-1.596-.272-2.057.408-.497.739-.515,1.701-.046,2.452.543.864,1.62,1.255,2.955,1.059.875-.128,1.641-.594,2.101-1.277.964-1.433,1.003-3.305.098-4.766-1.028-1.652-2.995-2.415-5.406-2.085-1.68.23-3.091,1.082-3.974,2.402-.098.147-.196.303-.287.463-1.134,1.977-1.177,4.307-.119,6.397,1.132,2.236,3.276,3.73,5.737,3.998l.29.031c1.989.274,4.838-.012,7.478-.737,8.509-2.403,13.223,1.939,13.854,2.613.103.092.203.184.3.282h0ZM571.507,581.272c.02.02.042.04.065.06.873.735,2.189.619,2.933-.258.522-.614.776-1.394.714-2.197-.019-.257-.071-.508-.153-.747-.003.352-.124.705-.369.994-.554.653-1.532.731-2.181.175-.231-.198-.56-.24-.839-.108-.356.168-.545.586-.535,1.174.006.347.143.686.364.908h.001Z" fill="url(#bb)"/><path d="M17.673,534.894c1.675,1.676,3.654,3.064,5.875,4.078l.566.259c4.318,2.125,10.81,3.604,17.329,3.941,17.077.763,22.197,11.851,22.248,11.962.024.055.052.108.083.159,2.336,3.882,1.061,8.967-2.844,11.337-2.957,1.792-6.817.875-8.615-2.047-.655-1.069-.805-2.479-.401-3.768.599-1.912,1.85-3.118,3.431-3.307,1.36-.163,2.696.489,3.396,1.653.417.69,1.308.909,1.996.496.687-.414.91-1.307.496-1.996-1.295-2.145-3.737-3.34-6.234-3.042-2.727.326-4.918,2.317-5.862,5.324-.653,2.081-.392,4.383.698,6.158,2.631,4.28,8.282,5.635,12.601,3.014,5.246-3.182,6.972-10.009,3.87-15.251-.579-1.227-6.494-12.783-24.725-13.597-6.043-.312-12.263-1.715-16.222-3.663l-.603-.276c-5.332-2.441-9.047-7.398-9.936-13.262-.845-5.586,1.026-10.897,5.134-14.569.321-.287.654-.565,1-.833,3.096-2.402,7.041-3.307,11.113-2.548,5.816,1.082,9.807,4.425,10.951,9.17,1.034,4.286-.567,8.805-4.075,11.514-1.803,1.391-4.191,1.95-6.552,1.534-3.566-.628-6.012-2.624-6.709-5.471-.628-2.552.319-5.246,2.415-6.862,1.069-.824,2.391-1.182,3.722-1.01,1.313.171,2.485.837,3.282,1.887.51.645,1.403.757,2.04.267.637-.489.757-1.403.267-2.04-1.277-1.664-3.128-2.728-5.214-3-2.101-.273-4.187.292-5.873,1.591-3.007,2.319-4.366,6.188-3.463,9.859.974,3.959,4.347,6.815,9.028,7.64,3.164.559,6.384-.206,8.834-2.096,4.417-3.409,6.428-9.099,5.126-14.498-1.403-5.822-6.354-10.065-13.246-11.347-4.899-.911-9.668.193-13.429,3.111-.399.311-.784.631-1.154.962-4.853,4.338-7.067,10.597-6.071,17.172.666,4.401,2.701,8.366,5.727,11.392h0Z" fill="url(#bc)"/><path d="M60.247,577.467c3.026,3.027,6.991,5.061,11.392,5.727,6.574.995,12.834-1.218,17.172-6.071.331-.371.652-.755.961-1.153,2.919-3.763,4.023-8.532,3.112-13.43-1.283-6.89-5.524-11.843-11.347-13.246-5.399-1.302-11.089.709-14.497,5.125-1.891,2.45-2.654,5.67-2.096,8.834.825,4.679,3.681,8.054,7.64,9.028,3.67.903,7.541-.457,9.859-3.463,1.299-1.685,1.864-3.77,1.591-5.873-.271-2.085-1.335-3.934-3-5.214-.637-.488-1.549-.37-2.04.267-.489.637-.38,1.542.267,2.04,1.051.797,1.717,1.969,1.888,3.282.173,1.331-.185,2.652-1.01,3.721-1.616,2.096-4.31,3.043-6.862,2.415-2.848-.7-4.842-3.146-5.471-6.709-.416-2.361.143-4.749,1.535-6.552,2.709-3.509,7.229-5.109,11.513-4.076,4.747,1.144,8.089,5.138,9.17,10.952.758,4.071-.148,8.017-2.549,11.114-.267.345-.545.678-.832.999-3.673,4.109-8.983,5.98-14.569,5.134-5.863-.888-10.819-4.602-13.262-9.936l-.259-.566c-1.965-3.996-3.369-10.216-3.68-16.269-.815-18.22-12.37-24.138-13.598-24.715-5.241-3.102-12.068-1.376-15.25,3.87-2.621,4.32-1.263,9.978,3.013,12.601,1.776,1.09,4.078,1.351,6.159.698,3.008-.944,4.998-3.134,5.324-5.862.297-2.495-.897-4.942-3.042-6.234-.688-.414-1.581-.191-1.996.496-.414.687-.195,1.579.496,1.996,1.163.699,1.815,2.035,1.653,3.396-.189,1.581-1.394,2.832-3.307,3.431-1.29.405-2.699.255-3.769-.402-2.928-1.793-3.841-5.657-2.047-8.615,2.369-3.903,7.454-5.18,11.336-2.845.051.03.104.059.159.083.453.205,11.205,5.267,11.962,22.238.336,6.529,1.817,13.021,3.958,17.376l.241.528c1.015,2.22,2.403,4.2,4.078,5.875v.005Z" fill="url(#bd)"/><path d="M55.861,537.371c.196-.459,4.896-11.317,11.598-16.549,3.204-2.501,6.105-2.152,7.559-.698,1.454,1.454,1.802,4.355-.7,7.558-5.232,6.704-16.09,11.402-16.549,11.598-.546.235-1.18.112-1.6-.309s-.542-1.054-.309-1.6h0ZM69.249,523.113c-3.783,2.954-6.973,8.117-8.864,11.644,3.526-1.889,8.684-5.076,11.642-8.865h0c1.338-1.714,1.483-3.165.934-3.714-.548-.547-2-.403-3.713.934h0ZM73.162,526.776l.012.012-.012-.012Z" fill="url(#be)"/><path d="M50.656,531.562c-.324-.509-3.149-5.076-2.388-8.866.36-1.792,1.87-3.04,3.673-3.034,1.815.007,3.268,1.222,3.616,3.026h0c.732,3.783-2.124,8.366-2.452,8.876-.267.417-.73.669-1.226.668-.389,0-.757-.156-1.026-.426-.073-.073-.14-.155-.198-.245h0ZM52.701,523.242c-.114-.583-.532-.671-.771-.671-.202,0-.685.066-.812.697-.258,1.285.202,2.941.772,4.331.586-1.396,1.061-3.064.811-4.358l1.428-.276-1.428.276h0Z" fill="url(#bf)"/><path d="M62.909,543.262c0-.495.25-.958.668-1.226.51-.328,5.094-3.182,8.876-2.452h0c1.804.349,3.02,1.802,3.026,3.616.007,1.803-1.241,3.313-3.033,3.673-3.79.761-8.357-2.064-8.866-2.388-.09-.057-.172-.124-.245-.198-.268-.269-.426-.636-.426-1.026h0ZM71.9,542.44c-1.29-.249-2.958.228-4.358.814,1.386.57,3.041,1.028,4.331.769.631-.127.699-.61.697-.812,0-.151-.035-.374-.208-.545-.1-.1-.248-.183-.463-.225h0Z" fill="url(#bg)"/><polygon points="30.805 397.393 36.352 402.973 41.899 397.393 36.352 391.813 30.805 397.393" fill="url(#bh)"/><polygon points="30.805 408.553 36.352 414.133 41.899 408.553 36.352 402.972 30.805 408.553" fill="url(#bi)"/><polygon points="30.805 469.193 36.352 474.774 41.899 469.193 36.352 463.613 30.805 469.193" fill="url(#bj)"/><polygon points="30.805 480.353 36.352 485.933 41.899 480.353 36.352 474.773 30.805 480.353" fill="url(#bk)"/><path d="M36.352,516.296c-.767,0-1.389-.622-1.389-1.389v-133.904c0-.767.622-1.389,1.389-1.389s1.389.622,1.389,1.389v133.904c0,.767-.622,1.389-1.389,1.389Z" fill="url(#bl)"/><polygon points="197.42 553.194 191.84 558.741 197.42 564.288 203.001 558.741 197.42 553.194" fill="url(#bm)"/><polygon points="186.261 553.194 180.68 558.741 186.261 564.288 191.841 558.741 186.261 553.194" fill="url(#bn)"/><polygon points="125.62 553.194 120.04 558.741 125.62 564.288 131.2 558.741 125.62 553.194" fill="url(#bo)"/><polygon points="114.46 553.194 108.88 558.741 114.46 564.288 120.041 558.741 114.46 553.194" fill="url(#bp)"/><path d="M213.81,560.131H79.906c-.767,0-1.389-.622-1.389-1.389s.622-1.389,1.389-1.389h133.904c.767,0,1.389.622,1.389,1.389s-.622,1.389-1.389,1.389Z" fill="url(#bq)"/><path d="M24.759,546.418c3.047-1.548,6.46-1.478,9.358.189.219.125.435.261.658.408,2.038,1.37,3.405,3.614,3.751,6.156.497,3.637-.819,6.811-3.529,8.497-2.504,1.555-5.706,1.492-8.155-.164-1.408-.951-2.362-2.497-2.617-4.24-.375-2.577.548-4.836,2.486-6.054,1.794-1.126,4.091-1.085,5.851.106,2.101,1.42,2.659,4.283,1.246,6.379-.48.712-1.446.902-2.158.421s-.901-1.447-.421-2.158c.457-.678.273-1.604-.408-2.067-.74-.5-1.705-.518-2.457-.046-.867.544-1.258,1.629-1.061,2.97.128.88.595,1.65,1.28,2.113,1.435.97,3.309,1.009,4.774.098,1.653-1.029,2.418-3.01,2.089-5.434-.231-1.689-1.084-3.107-2.398-3.989-.154-.103-.311-.201-.476-.295-1.975-1.138-4.31-1.181-6.402-.117-2.237,1.134-3.734,3.291-4.005,5.769l-.037.332c-.268,1.957.017,4.819.741,7.463,2.41,8.566-1.959,13.309-2.613,13.937-1.051,1.198-2.517,1.939-4.124,2.063-1.629.125-3.213-.391-4.458-1.454-2.169-1.853-2.449-5.133-.622-7.312.774-.92,2.024-1.522,3.297-1.543,1.829-.033,3.341.834,4.043,2.319.516,1.092.489,2.347-.033,3.4.869-1.033,3.214-4.526,1.512-10.576-.843-3.078-1.151-6.338-.829-8.678l.032-.29c.261-2.401,1.332-4.59,2.994-6.252.775-.775,1.681-1.437,2.693-1.951h-.005ZM15.644,575.13c-.654-.558-.732-1.54-.175-2.193.198-.232.24-.563.108-.844-.169-.357-.587-.548-1.176-.538-.382.007-.759.18-.969.431-.736.877-.62,2.201.258,2.949.616.525,1.397.781,2.201.719.259-.02.51-.072.749-.153-.352-.003-.708-.125-.996-.372Z" fill="url(#br)"/><path d="M18.065,574.505c.635-.675,5.374-5.024,13.928-2.617,2.653.727,5.516,1.013,7.516.738l.291-.031c2.474-.268,4.629-1.764,5.768-4.005,1.063-2.095,1.021-4.428-.12-6.408-.092-.16-.19-.317-.288-.464-.888-1.321-2.306-2.175-3.995-2.405-2.425-.33-4.402.433-5.435,2.089-.909,1.464-.871,3.339.098,4.774.463.684,1.233,1.151,2.112,1.279,1.343.196,2.425-.196,2.97-1.061.472-.752.454-1.715-.046-2.456-.463-.681-1.39-.866-2.068-.409-.712.48-1.678.292-2.158-.421-.48-.712-.292-1.68.421-2.158,2.097-1.413,4.959-.854,6.38,1.247,1.191,1.76,1.233,4.057.105,5.851-1.22,1.934-3.477,2.861-6.054,2.486-1.743-.255-3.289-1.208-4.239-2.616-1.656-2.451-1.72-5.653-.164-8.156,1.683-2.71,4.858-4.026,8.497-3.529,2.543.346,4.787,1.713,6.162,3.759.141.214.276.43.4.645,1.671,2.903,1.74,6.316.193,9.364-1.616,3.18-4.682,5.304-8.204,5.688l-.249.026c-2.38.326-5.64.017-8.728-.828-6.056-1.705-9.55.658-10.568,1.515,1.052-.522,2.309-.55,3.402-.033,1.485.703,2.351,2.213,2.318,4.042-.021,1.273-.596,2.512-1.543,3.298-2.179,1.827-5.458,1.547-7.312-.622-1.063-1.246-1.58-2.83-1.454-4.459.113-1.467.734-2.813,1.761-3.84.097-.098.198-.191.302-.283v-.002ZM23.202,580.356c.011-.589-.18-1.007-.538-1.176-.28-.132-.611-.089-.844.109-.653.557-1.636.48-2.193-.175-.246-.29-.368-.643-.371-.995-.083.239-.135.49-.154.748-.062.804.193,1.585.718,2.201.748.877,2.071.993,2.949.258.023-.02.044-.04.065-.06.222-.222.36-.561.366-.909h.002Z" fill="url(#bs)"/><path d="M248.561,107.148c.467-1.142,1.488-1.979,2.05-3.12,3.151-6.389,1.722-16.287,3.974-23.352,1.727-5.419,6.47-10.3,11.305-13.103l2.565-1.149c-5.906,5.838-10.335,12.698-10.873,21.228-.213,3.38.356,6.883-.265,10.211,10.296-7.203,14.777-18.926,17.695-30.719,3.096-12.515,4.607-26.002-4.561-36.403-1.279-1.451-6.338-6.224-8.191-6.032-1.332.138-1.431,2.149-1.507,3.239-.755,10.826-1.311,21.127,7.303,29.064l3.052,3.18c-5.508-1.868-11.762-5.047-14.965-10.103-6.355-10.032,4.187-22.504-4.554-33.117-1.367-1.66-2.986-2.527-4.62-3.734,15.363,2.944,31.534,12.847,33.925,29.609,1.959,13.736-4.317,38.836-12.975,49.836-4.873,6.191-12.164,11.341-19.357,14.466h-.002Z" fill="url(#bt)"/><path d="M348.309,8.195c-3.614,3.363-5.772,7.311-6.113,12.323-.703,10.351.731,21.035-5.29,30.26-1.672,2.562-4.815,5.271-5.77,8.026-2.025,5.84.176,17.088,3.067,22.523.997,1.875,2.401,3.513,3.759,5.126-6.077-1.646-10.268-5.528-13.479-10.793-2.816-4.616-5.214-10.595-7.147-15.669-1.843-4.837-3.629-9.817-4.579-14.923-.692-.121-.411.099-.553.378-1.987,3.893-3.164,13.087-3.172,17.518-.012,6.562,3.405,14.892-4.232,18.448,2.676-6.404,1.252-13.993,1.581-20.834.466-9.688,1.872-18.153,7.601-26.092,8.56-11.862,21.117-20.345,34.326-26.291h0ZM328.675,72.658c-.955-3.946-1.916-8.208-1.555-12.301.465-5.273,3.979-9.831,6.114-14.58,3.444-7.663,4.424-14.187,4.727-22.599.025-.698.234-3.406-.415-3.563-4.205,1.46-8.154,4.12-11.525,7.011-2.667,2.287-8.158,7.752-9.765,10.663-1.13,2.046-.161,4.761.348,6.985,2.005,8.749,5.752,17.906,10.106,25.71l1.965,2.674h0Z" fill="url(#bu)"/><path d="M308.249,31.806c-1.469,3.386-3.224,6.683-3.981,10.345-1.001-1.094-.992-2.46-2.254-3.447-2.033-1.59-7.176-1.005-8.89.923-2.614,2.941-2.284,12.901-3.71,16.848,4.043-.508,8.438-1.102,11.542-3.976.203-.041.163.244.126.39-.539,2.15-2.289,4.57-2.938,6.754-2.004-.398-8.117-1.312-9.231.71l-3.077,19.208c5.498-1.805,12.019-1.8,15.205-7.346.18-.314.829-2.729,1.372-2.207-.049,1.981.033,3.972-.269,5.944-.198,1.293-.749,4.918-2.257,5.19-8.137.052-16.056.904-22.94,5.577,3.623-7.907,5.656-16.564,7.083-25.148,1.285-7.728,2.601-16.18,1.405-23.931,7.922-.255,15.543-2.936,22.814-5.837v.003Z" fill="url(#bv)"/><path d="M323.636,49.311c-.806.135-.423-.204-.536-.644-.711-2.763-.961-6.572.04-9.268,1.796-4.835,7.476-8.337,10.84-12.106-2.042,8.204-10.454,13.02-10.345,22.017h.001Z" fill="url(#bw)"/></g></svg>